<svg xmlns="http://www.w3.org/2000/svg" width="17.406" height="20.032" viewBox="0 0 17.406 20.032">
  <defs>
    <style>
      .cls-1 {
        fill: #5cc95f;
        fill-rule: evenodd;
      }
    </style>
  </defs>
  <path id="active-user-color.svg" class="cls-1" d="M496.6,186.645v0.04l-0.087-.02-0.087.02v-0.04l-8.576-2.054s0.75-6.4.89-7a1.471,1.471,0,0,1,.9-0.979l1.53-.554a10.072,10.072,0,0,1-.369-3.476c0.35-5.388,4.675-5.931,5.69-5.923,1.1-.016,5.34.535,5.69,5.923a10.094,10.094,0,0,1-.362,3.452l1.627,0.578a1.471,1.471,0,0,1,.9.979c0.14,0.6.89,7,.89,7Zm6.207-8.055a1.177,1.177,0,0,0-.725-0.785l-2.321-.825a7.2,7.2,0,0,0,1.017-4.263c-0.263-4.047-3.446-4.461-4.274-4.449-0.762-.006-4.011.4-4.275,4.449a7.193,7.193,0,0,0,1.026,4.275l-2.243.813a1.177,1.177,0,0,0-.725.785c-0.112.484-.613,4.714-0.613,4.714l6.776,1.648v0.032l0.069-.016,0.07,0.016v-0.032l6.83-1.648S502.918,179.074,502.806,178.59Zm-6.235,5.1-0.053-.012-0.052.012v-0.025l-5.448-1.249s0.379-2.83.464-3.2a0.894,0.894,0,0,1,.55-0.6l2.435-.769,2.051,2.389,2.052-2.389,2.435,0.769a0.894,0.894,0,0,1,.55.6c0.085,0.367.464,3.2,0.464,3.2l-5.448,1.249v0.025Zm-0.063-5.946h0c-1.244,0-3.275-1.881-3.084-4.809a3.087,3.087,0,1,1,6.17,0C499.782,175.86,497.752,177.739,496.508,177.741Z" transform="translate(-487.844 -166.656)"/>
</svg>
