<svg xmlns="http://www.w3.org/2000/svg" width="76.75" height="76.75" viewBox="0 0 76.75 76.75">
  <defs>
    <style>
      .cls-1 {
        fill: #3181cb;
        fill-rule: evenodd;
      }
    </style>
  </defs>
  <path id="aggregator.svg" class="cls-1" d="M164.568,249.1l-1.7,2.937-4.249-10.02,10.8-1.33-1.7,2.937,20.447,11.8a34.6,34.6,0,0,0-22.262-48.038v-3.839a38.359,38.359,0,0,1,22.334,59.22Zm-4.629-19.254h3.392l-6.553,8.69-6.554-8.69h3.392V206.318a34.659,34.659,0,0,0-30.324,43.432l-3.325,1.92a38.37,38.37,0,0,1,36.812-49.217c1.065,0,2.117.054,3.16,0.14v27.256Zm-14.11,13.778-1.7-2.937,10.8,1.33-4.249,10.02-1.7-2.937-20.431,11.8a34.616,34.616,0,0,0,52.473,4.661l3.333,1.924a38.373,38.373,0,0,1-62.244-10.169Z" transform="translate(-118.406 -202.438)"/>
</svg>
