<svg xmlns="http://www.w3.org/2000/svg" width="20.656" height="18.812" viewBox="0 0 20.656 18.812">
  <defs>
    <style>
      .cls-1 {
        fill: #e955dd;
        fill-rule: evenodd;
      }
    </style>
  </defs>
  <path id="anomalies-color.svg" class="cls-1" d="M455.674,176.121h3.317l0.374-1.235,1.248,0,0.4,2.4,0.649-5.347,0.928,0,1.022,6.34,1.225-10.82,0.884,0,1.335,12.608,1.174-9.6,0.817-.008,1.015,6.882,0.536-3.558,0.971-.033,0.565,3.156,0.353-.774h3.834l0.01,1.487h-3.161l-0.416.9-1.254-.036-0.292-1.3-0.685,4.47-0.981,0-0.805-4.945-1.242,9.532-0.936,0-1.316-11.624-1.032,8.7-1-.02-1.043-6.8-0.613,3.307-1.071-.01-0.6-3.18-0.286,1h-3.923Z" transform="translate(-455.656 -167.438)"/>
</svg>
