<svg id="configuration.svg" xmlns="http://www.w3.org/2000/svg" width="20.063" height="20.062" viewBox="0 0 20.063 20.062">
  <defs>
    <style>
      .cls-1 {
        fill: #fff;
        fill-rule: evenodd;
      }
    </style>
  </defs>
  <path id="Shape_14_copy_2" data-name="Shape 14 copy 2" class="cls-1" d="M37.471,536.965H37.1a0.4,0.4,0,0,0-.329.118,8.084,8.084,0,0,1-.13.818,0.394,0.394,0,0,0,.277.216l0.355,0.115A2.454,2.454,0,0,1,38.3,539l-0.2.626a2.45,2.45,0,0,1-1.282.023l-0.355-.116a0.392,0.392,0,0,0-.35.012,8.127,8.127,0,0,1-.376.739,0.394,0.394,0,0,0,.2.289l0.3,0.219a2.453,2.453,0,0,1,.735,1.051l-0.387.532A2.441,2.441,0,0,1,35.35,542l-0.3-.219a0.393,0.393,0,0,0-.342-0.1,8.1,8.1,0,0,1-.583.581,0.393,0.393,0,0,0,.1.339l0.219,0.3a2.447,2.447,0,0,1,.375,1.226l-0.532.387a2.447,2.447,0,0,1-1.05-.735l-0.219-.3a0.392,0.392,0,0,0-.3-0.2c-0.235.135-.475,0.257-0.722,0.368a0.392,0.392,0,0,0-.016.36c0.059,0.181.064,0.2,0.115,0.355a2.445,2.445,0,0,1-.023,1.281l-0.626.2a2.451,2.451,0,0,1-.772-1.024l-0.115-.355a0.392,0.392,0,0,0-.219-0.278c-0.268.056-.539,0.1-0.813,0.13a0.393,0.393,0,0,0-.12.331v0.373a2.449,2.449,0,0,1-.418,1.212H28.327a2.45,2.45,0,0,1-.418-1.212v-0.373a0.394,0.394,0,0,0-.116-0.326c-0.274-.03-0.549-0.073-0.824-0.131a0.4,0.4,0,0,0-.214.276l-0.115.355a2.46,2.46,0,0,1-.772,1.024l-0.626-.2a2.449,2.449,0,0,1-.023-1.282l0.115-.355a0.393,0.393,0,0,0-.011-0.349,8.182,8.182,0,0,1-.742-0.378,0.393,0.393,0,0,0-.29.2l-0.219.3a2.446,2.446,0,0,1-1.05.735l-0.532-.387a2.45,2.45,0,0,1,.375-1.226l0.219-.3a0.39,0.39,0,0,0,.1-0.344,8.116,8.116,0,0,1-.574-0.577,0.4,0.4,0,0,0-.342.1l-0.3.219a2.462,2.462,0,0,1-1.226.375l-0.387-.533a2.446,2.446,0,0,1,.735-1.05l0.3-.22a0.391,0.391,0,0,0,.2-0.3c-0.135-.235-0.257-0.475-0.368-0.722a0.388,0.388,0,0,0-.356-0.015l-0.355.115a2.453,2.453,0,0,1-1.282-.022l-0.2-.626a2.445,2.445,0,0,1,1.024-.772l0.355-.115a0.4,0.4,0,0,0,.277-0.217,8.112,8.112,0,0,1-.13-0.812,0.392,0.392,0,0,0-.335-0.124H19.838a2.446,2.446,0,0,1-1.212-.418v-0.658a2.446,2.446,0,0,1,1.212-.418h0.373a0.393,0.393,0,0,0,.33-0.12,8.166,8.166,0,0,1,.13-0.816,0.4,0.4,0,0,0-.277-0.216l-0.355-.115a2.454,2.454,0,0,1-1.024-.772l0.2-.626a2.45,2.45,0,0,1,1.282-.023l0.355,0.115a0.393,0.393,0,0,0,.352-0.012,8.115,8.115,0,0,1,.375-0.736,0.394,0.394,0,0,0-.2-0.291l-0.3-.219a2.448,2.448,0,0,1-.735-1.051l0.387-.532a2.44,2.44,0,0,1,1.226.375l0.3,0.219a0.393,0.393,0,0,0,.345.1q0.272-.3.571-0.57a0.386,0.386,0,0,0-.095-0.352l-0.219-.3a2.448,2.448,0,0,1-.375-1.226l0.533-.387a2.446,2.446,0,0,1,1.05.735l0.219,0.3a0.365,0.365,0,0,0,.314.2q0.345-.2.708-0.361a0.373,0.373,0,0,0,.022-0.367l-0.115-.354a2.45,2.45,0,0,1,.023-1.282l0.626-.2a2.45,2.45,0,0,1,.772,1.024l0.115,0.355a0.388,0.388,0,0,0,.226.282c0.263-.055.529-0.1,0.8-0.127a0.391,0.391,0,0,0,.127-0.338V527.4a2.45,2.45,0,0,1,.418-1.212h0.658A2.449,2.449,0,0,1,29.4,527.4v0.373a0.394,0.394,0,0,0,.122.333,8.141,8.141,0,0,1,.811.129,0.391,0.391,0,0,0,.218-0.277l0.115-.355a2.444,2.444,0,0,1,.772-1.024l0.626,0.2a2.45,2.45,0,0,1,.023,1.282l-0.115.355a0.393,0.393,0,0,0,.012.352,8.061,8.061,0,0,1,.734.373,0.4,0.4,0,0,0,.29-0.2l0.219-.3a2.441,2.441,0,0,1,1.05-.736l0.533,0.387a2.447,2.447,0,0,1-.375,1.226l-0.219.3a0.393,0.393,0,0,0-.1.342,7.971,7.971,0,0,1,.578.579,0.392,0.392,0,0,0,.348-0.1l0.3-.219a2.451,2.451,0,0,1,1.226-.375l0.387,0.533a2.445,2.445,0,0,1-.735,1.05l-0.3.219a0.377,0.377,0,0,0-.2.309c0.131,0.23.252,0.465,0.36,0.707a0.362,0.362,0,0,0,.371.025l0.355-.115a2.452,2.452,0,0,1,1.282.022l0.2,0.626a2.445,2.445,0,0,1-1.024.772l-0.355.115a0.382,0.382,0,0,0-.283.23q0.083,0.4.127,0.8a0.393,0.393,0,0,0,.334.123h0.373a2.446,2.446,0,0,1,1.212.418v0.658A2.446,2.446,0,0,1,37.471,536.965Zm-10.942,5.8a6.861,6.861,0,0,0,6.505-1.256l-2.413-2.679a3.256,3.256,0,0,1-5.066-1.592l-3.539.752A6.864,6.864,0,0,0,26.529,542.765Zm2.38-7.324a0.819,0.819,0,1,0,.526,1.032A0.819,0.819,0,0,0,28.908,535.441Zm-6.8-1.347a6.857,6.857,0,0,0-.313,2.713l3.6-.766a3.237,3.237,0,0,1,.143-0.832,3.271,3.271,0,0,1,3.515-2.233l1.115-3.433A6.859,6.859,0,0,0,22.111,534.094Zm9.2-4.184L30.2,533.342a3.268,3.268,0,0,1,1.569,3.889,3.231,3.231,0,0,1-.334.7l2.465,2.738A6.841,6.841,0,0,0,31.314,529.91Z" transform="translate(-18.625 -526.188)"/>
</svg>
