<svg id="dashboard.svg" xmlns="http://www.w3.org/2000/svg" width="23" height="14.562" viewBox="0 0 23 14.562">
  <defs>
    <style>
      .cls-1 {
        fill: #fff;
        fill-rule: evenodd;
      }
    </style>
  </defs>
  <path id="Ellipse_7_copy_3" data-name="Ellipse 7 copy 3" class="cls-1" d="M35.023,365.158a13.372,13.372,0,0,0-11.538,0L17.745,353.2a26.668,26.668,0,0,1,23.019,0ZM29.256,352.41a24.805,24.805,0,0,0-9.142,1.735l4.214,8.777a15.111,15.111,0,0,1,3.1-.7l1.826-3.8,1.826,3.8a15.173,15.173,0,0,1,3.1.7l4.214-8.777A24.794,24.794,0,0,0,29.256,352.41Zm2.232,4.478a20.409,20.409,0,0,0-8.116.742l-1.3-2.7a19.5,19.5,0,0,1,9.748-1.191Zm1.582-2.945a19.4,19.4,0,0,1,3.365.987l-1.3,2.7a20.558,20.558,0,0,0-2.648-.6Z" transform="translate(-17.75 -350.594)"/>
</svg>
