<svg xmlns="http://www.w3.org/2000/svg" width="14.938" height="14.312" viewBox="0 0 14.938 14.312">
  <defs>
    <style>
      .cls-1 {
        fill: #f8f8fa;
        fill-rule: evenodd;
      }
    </style>
  </defs>
  <path id="date-range-white.svg" class="cls-1" d="M562.156,406.327a1.035,1.035,0,0,1-.772.318H548.626a1.058,1.058,0,0,1-.782-0.318,1.088,1.088,0,0,1-.319-0.783V394.575a1.079,1.079,0,0,1,.319-0.774,1.055,1.055,0,0,1,.782-0.327h3.237v-0.619a0.493,0.493,0,0,1,.5-0.5,0.5,0.5,0,0,1,.509.5v0.619h4.265v-0.619a0.5,0.5,0,0,1,1,0v0.619h3.247a1.033,1.033,0,0,1,.772.327,1.079,1.079,0,0,1,.319.774v10.969A1.089,1.089,0,0,1,562.156,406.327Zm-0.681-11.752a0.078,0.078,0,0,0-.091-0.091h-3.247V394.7a0.5,0.5,0,1,1-1,0v-0.218h-4.265V394.7a0.508,0.508,0,0,1-.509.509,0.5,0.5,0,0,1-.5-0.509v-0.218h-3.237a0.084,0.084,0,0,0-.1.091v2.574h12.949v-2.574Zm0,3.574H548.526v7.395a0.115,0.115,0,0,0,.1.091h12.758a0.078,0.078,0,0,0,.091-0.091v-7.395Zm-8.566,1.365H555.1v2.174h-2.191v-2.174Zm-2.965,2.938h2.2v2.2h-2.2v-2.2Zm0-2.938h2.2v2.174h-2.2v-2.174Z" transform="translate(-547.531 -392.344)"/>
</svg>
