<svg xmlns="http://www.w3.org/2000/svg" width="21.75" height="26.5" viewBox="0 0 21.75 26.5">
  <defs>
    <style>
      .cls-1 {
        fill: #fff;
        fill-rule: evenodd;
      }
    </style>
  </defs>
  <path id="diagram-user.svg" class="cls-1" d="M229.045,343.753a5.787,5.787,0,1,1-5.787,5.787A5.787,5.787,0,0,1,229.045,343.753Zm10.838,24.037a16.326,16.326,0,0,1-3.538,1.634v-4.639l-0.915,4.8a48.02,48.02,0,0,1-5.83.634v0.026c-0.2,0-.4,0-0.6-0.007s-0.4.007-.605,0.007v-0.026a48.02,48.02,0,0,1-5.83-.634l-0.915-4.8v4.639a16.009,16.009,0,0,1-3.526-1.634s-0.005-5.068-.005-5.767a1.243,1.243,0,0,1,.134-0.811,7.9,7.9,0,0,1,7.9-5.076,5.32,5.32,0,0,0,5.691,0,7.9,7.9,0,0,1,7.9,5.076,1.243,1.243,0,0,1,.134.811C239.876,362.722,239.883,367.79,239.883,367.79Z" transform="translate(-218.125 -343.75)"/>
</svg>
