<svg xmlns="http://www.w3.org/2000/svg" width="25" height="28.437" viewBox="0 0 25 28.437">
  <defs>
    <style>
      .cls-1 {
        fill: #fff;
        fill-rule: evenodd;
      }
    </style>
  </defs>
  <path id="diagram-host.svg" class="cls-1" d="M274.73,364.868H252.291a1.281,1.281,0,0,1-1.283-1.281v-6.731a1.281,1.281,0,0,1,1.283-1.281H274.73a1.281,1.281,0,0,1,1.283,1.281v6.731A1.282,1.282,0,0,1,274.73,364.868Zm-9.67-5.287h-9.466a0.641,0.641,0,1,0,0,1.281h9.466A0.641,0.641,0,1,0,265.06,359.581ZM270,358.327a1.895,1.895,0,1,0,1.9,1.894A1.9,1.9,0,0,0,270,358.327Zm4.726-6.2H252.291a1.282,1.282,0,0,1-1.283-1.281v-6.732a1.282,1.282,0,0,1,1.283-1.281H274.73a1.282,1.282,0,0,1,1.283,1.281v6.732A1.283,1.283,0,0,1,274.73,352.127Zm-9.67-5.287h-9.466a0.641,0.641,0,1,0,0,1.281h9.466A0.641,0.641,0,1,0,265.06,346.84ZM270,345.586a1.894,1.894,0,1,0,1.9,1.894A1.9,1.9,0,0,0,270,345.586ZM251.97,369.367h10.579V367.8a0.32,0.32,0,0,1,.32-0.32h1.282a0.321,0.321,0,0,1,.321.32v1.564h10.579a0.961,0.961,0,1,1,0,1.922H251.97A0.961,0.961,0,1,1,251.97,369.367Z" transform="translate(-251 -342.844)"/>
</svg>
