<svg xmlns="http://www.w3.org/2000/svg" width="51.312" height="51.312" viewBox="0 0 51.312 51.312">
  <defs>
    <style>
      .cls-1 {
        fill: #d3d3d3;
        fill-rule: evenodd;
      }
    </style>
  </defs>
  <path id="download-big.svg" class="cls-1" d="M341.5,215.854A25.646,25.646,0,1,0,367.145,241.5,25.645,25.645,0,0,0,341.5,215.854Zm10.477,27.055-9.068,9.067a2.6,2.6,0,0,1-2.818,0l-9.067-9.067a1.6,1.6,0,0,1,2.267-2.268l6.607,6.606V230.279a1.6,1.6,0,1,1,3.2,0v16.968l6.606-6.606A1.6,1.6,0,0,1,351.976,242.909Z" transform="translate(-315.844 -215.844)"/>
</svg>
