<svg xmlns="http://www.w3.org/2000/svg" width="18.124" height="18.124" viewBox="0 0 18.124 18.124">
  <defs>
    <style>
      .cls-1 {
        fill: #f8f8fa;
        fill-rule: evenodd;
      }
    </style>
  </defs>
  <path id="duration-white.svg" class="cls-1" d="M555.005,383.071a9.066,9.066,0,1,1,9.066-9.066A9.071,9.071,0,0,1,555.005,383.071Zm0-16.552a7.486,7.486,0,1,0,7.486,7.486A7.487,7.487,0,0,0,555.005,366.519Zm3.328,8.268H555a0.788,0.788,0,0,1-.8-0.8v-4.583a0.8,0.8,0,1,1,1.594,0v3.786h2.539A0.8,0.8,0,0,1,558.333,374.787Z" transform="translate(-545.938 -364.938)"/>
</svg>
