<svg xmlns="http://www.w3.org/2000/svg" width="17.188" height="17.188" viewBox="0 0 17.188 17.188">
  <defs>
    <style>
      .cls-1 {
        fill-rule: evenodd;
      }
    </style>
  </defs>
  <path id="high-risk-mono.svg" class="cls-1" d="M497,285.588A8.588,8.588,0,1,1,505.588,277,8.6,8.6,0,0,1,497,285.588Zm0-15.644A7.056,7.056,0,1,0,504.056,277,7.065,7.065,0,0,0,497,269.944Zm0,11.636a0.9,0.9,0,1,1,.9-0.9A0.9,0.9,0,0,1,497,281.58Zm0-3.075a0.9,0.9,0,0,1-.9-0.9V272.87a0.9,0.9,0,0,1,1.8,0v4.736A0.9,0.9,0,0,1,497,278.505Z" transform="translate(-488.406 -268.406)"/>
</svg>
