<svg xmlns="http://www.w3.org/2000/svg" width="17.188" height="17.188" viewBox="0 0 17.188 17.188">
  <defs>
    <style>
      .cls-1 {
        fill: #f23737;
        fill-rule: evenodd;
      }
    </style>
  </defs>
  <path id="high-risk-color.svg" class="cls-1" d="M497,196.412A8.588,8.588,0,1,0,505.588,205,8.6,8.6,0,0,0,497,196.412Zm0,15.644A7.056,7.056,0,1,1,504.056,205,7.065,7.065,0,0,1,497,212.056Zm0-12.085a0.9,0.9,0,0,0-.9.9v4.736a0.9,0.9,0,0,0,1.8,0V200.87A0.9,0.9,0,0,0,497,199.971Zm0,7.811a0.9,0.9,0,1,1-.9.9A0.9,0.9,0,0,1,497,207.782Z" transform="translate(-488.406 -196.406)"/>
</svg>
