<svg xmlns="http://www.w3.org/2000/svg" width="12.625" height="16.062" viewBox="0 0 12.625 16.062">
  <defs>
    <style>
      .cls-1 {
        fill: #b9b9b9;
        fill-rule: evenodd;
      }
    </style>
  </defs>
  <path id="input-users.svg" class="cls-1" d="M368.376,52V52.03l-0.06-.014-0.061.014V52l-6.262-1.436s0.436-3.254.533-3.676a1.029,1.029,0,0,1,.632-0.684l2.8-.885,2.359,2.747,2.358-2.747,2.8,0.885a1.027,1.027,0,0,1,.632.684c0.1,0.422.533,3.676,0.533,3.676Zm4.039-2.626-2.1.856-0.035.535,2.478-.614,0.072-.626-0.417.187ZM368.3,45.2h0c-1.43,0-3.764-2.163-3.545-5.528a3.549,3.549,0,1,1,7.092,0C372.067,43.033,369.733,45.193,368.3,45.2Z" transform="translate(-362 -35.969)"/>
</svg>
