<svg xmlns="http://www.w3.org/2000/svg" width="17" height="17" viewBox="0 0 17 17">
  <defs>
    <style>
      .cls-1 {
        fill: #b9b9b9;
        fill-rule: evenodd;
      }
    </style>
  </defs>
  <path id="input-systems.svg" class="cls-1" d="M327.5,52.5A8.492,8.492,0,1,1,335.99,44,8.492,8.492,0,0,1,327.5,52.5Zm-7.136-10.176a1.547,1.547,0,0,0,.672.453l0.228,0.061a0.215,0.215,0,0,1,.072.042V42.65a1.508,1.508,0,0,1,.746-0.257h0.229a0.207,0.207,0,0,0,.2-0.079c0.018-.156.066-0.312,0.1-0.469l-0.013,0a0.213,0.213,0,0,0-.177-0.157l-0.218-.071a1.5,1.5,0,0,1-.275-0.153c-0.063.139-.1,0.291-0.15,0.435l-0.032-.008a0.22,0.22,0,0,1-.241.035l-0.228-.061a1.546,1.546,0,0,0-.808.057C320.453,41.977,320.391,42.207,320.361,42.321Zm0.89-2.15-0.208.361a1.546,1.546,0,0,0,.532.612h0s0,0,0-.006l0.125-.385a1.507,1.507,0,0,1,.789-0.014l0.218,0.071a0.213,0.213,0,0,0,.235-0.022l0.013,0c0.066-.146.118-0.3,0.2-0.437a0.205,0.205,0,0,0-.118-0.184l-0.186-.135a1.188,1.188,0,0,1-.157-0.159,0.221,0.221,0,0,1,.089.224l0.016,0.016c-0.1.119-.21,0.228-0.3,0.354h0a0.22,0.22,0,0,1-.242-0.028l-0.2-.118A1.548,1.548,0,0,0,321.251,40.171Zm3.372-2.075a1.546,1.546,0,0,0-.612-0.532l-0.361.208a1.544,1.544,0,0,0,.155.8l0.118,0.2a0.221,0.221,0,0,1,.029.24c-0.127.09-.236,0.2-0.356,0.3l-0.014-.015a0.221,0.221,0,0,1-.227-0.09l-0.167-.167a1.549,1.549,0,0,0-.729-0.355l-0.294.294a1.547,1.547,0,0,0,.355.729l0.165,0.165a1.045,1.045,0,0,1-.292-0.483l0.238-.328a1.506,1.506,0,0,1,.754.23l0.186,0.135a0.21,0.21,0,0,0,.226.053c0.1-.115.223-0.216,0.337-0.32l-0.006-.009a0.215,0.215,0,0,0-.052-0.231l-0.135-.186a1.5,1.5,0,0,1-.23-0.754l0.327-.238a1.49,1.49,0,0,1,.638.444Zm0.188,0.274,0.008,0.011a0.179,0.179,0,0,0,.016.013A0.272,0.272,0,0,1,324.811,38.37Zm0.989-1.488-0.4.108a1.546,1.546,0,0,0-.057.809l0.061,0.228a0.22,0.22,0,0,1-.035.241v0c-0.146.054-.291,0.109-0.432,0.174h0a0.32,0.32,0,0,1-.051-0.01,0.315,0.315,0,0,0,.137.067l0,0.005c0.136-.077.272-0.147,0.414-0.211l0-.005a0.213,0.213,0,0,0,.022-0.236l-0.07-.218a1.5,1.5,0,0,1,.013-0.788l0.385-.125a1.184,1.184,0,0,1,.4.478A1.225,1.225,0,0,0,325.8,36.881Zm1.488-.2a1.549,1.549,0,0,0-.264.767v0.236a0.276,0.276,0,0,1-.042.159,0.235,0.235,0,0,0,.06-0.188V37.43a1.513,1.513,0,0,1,.256-0.744h-0.01Zm0.681,1V37.452a2.228,2.228,0,0,0-.188-0.675,2.181,2.181,0,0,1,.18.652v0.229a0.238,0.238,0,0,0,.008.032v0Zm-4.493,3.858a4.228,4.228,0,0,0-.192,1.669l2.215-.471a2.032,2.032,0,0,1,.088-0.512,2.011,2.011,0,0,1,2.162-1.373l0.686-2.111A4.218,4.218,0,0,0,323.476,41.546Zm5.234,2.913a2,2,0,0,1-3.115-.979l-2.177.462a4.215,4.215,0,0,0,6.776,2.164Zm-1.053-2.084a0.5,0.5,0,1,0,.323.635A0.5,0.5,0,0,0,327.657,42.374Zm1.758,1.1a1.989,1.989,0,0,1-.206.432l1.516,1.683a4.206,4.206,0,0,0-1.589-6.617l-0.686,2.111A2.009,2.009,0,0,1,329.415,43.475Zm0.641-5.03h0c-0.139-.064-0.29-0.1-0.435-0.159l0-.019a0.22,0.22,0,0,1-.035-0.241c0.031-.116.033-0.126,0.061-0.228a1.556,1.556,0,0,0-.057-0.809l-0.4-.108a1.55,1.55,0,0,0-.454.672v0h0a1.508,1.508,0,0,1,.475-0.63L329.6,37.05a1.51,1.51,0,0,1,.014.788c-0.032.1-.035,0.107-0.071,0.218a0.213,0.213,0,0,0,.022.236l0,0.012c0.144,0.065.3,0.116,0.432,0.193a0.292,0.292,0,0,0,.122-0.064A0.174,0.174,0,0,1,330.056,38.445Zm0.08-.029a0.187,0.187,0,0,0,.043-0.035l0.022-.03A0.371,0.371,0,0,1,330.136,38.416Zm2.4,0.27a1.547,1.547,0,0,0-.728.355l-0.167.167a0.221,0.221,0,0,1-.227.09l-0.015.015c-0.119-.1-0.228-0.21-0.355-0.3a0.218,0.218,0,0,1,.029-0.24l0.118-.2a1.555,1.555,0,0,0,.155-0.8l-0.361-.208a1.546,1.546,0,0,0-.612.532l-0.064.111,0.008-.011a1.506,1.506,0,0,1,.646-0.452l0.327,0.238a1.505,1.505,0,0,1-.23.754l-0.135.186a0.211,0.211,0,0,0-.054.224c0.117,0.106.219,0.226,0.325,0.342l0.008-.006a0.214,0.214,0,0,0,.231-0.052l0.186-.135a1.506,1.506,0,0,1,.754-0.23l0.238,0.328a0.906,0.906,0,0,1-.253.434l0.115-.116a1.54,1.54,0,0,0,.356-0.729Zm1.209,1.485a1.548,1.548,0,0,0-.8.155l-0.205.118a0.221,0.221,0,0,1-.242.028h0c-0.089-.127-0.2-0.235-0.3-0.354l0.016-.015a0.261,0.261,0,0,1,.069-0.19,1.041,1.041,0,0,1-.127.124l-0.186.135a0.215,0.215,0,0,0-.121.2l0,0c0.077,0.135.147,0.272,0.211,0.413l0.006,0a0.215,0.215,0,0,0,.236.022l0.218-.071a1.509,1.509,0,0,1,.789.014c0.018,0.055.087,0.27,0.123,0.38a1.53,1.53,0,0,0,.52-0.6Zm0.782,1.748a1.55,1.55,0,0,0-.809-0.057l-0.228.061a0.219,0.219,0,0,1-.24-0.035l-0.012,0c-0.053-.144-0.105-0.286-0.168-0.424a1.441,1.441,0,0,1-.265.147l-0.218.071a0.213,0.213,0,0,0-.178.157l-0.011,0c0.032,0.153.068,0.3,0.085,0.459a0.209,0.209,0,0,0,.213.089h0.23a1.508,1.508,0,0,1,.745.257v0.222a0.208,0.208,0,0,1,.064-0.037l0.228-.061a1.547,1.547,0,0,0,.672-0.453C334.6,42.207,334.54,41.977,334.524,41.918Zm-0.463,1.626h-0.236a0.219,0.219,0,0,1-.223-0.1h-0.026c-0.012-.1-0.021-0.2-0.031-0.305a2.157,2.157,0,0,1-.622.168h-0.23a0.207,0.207,0,0,0-.2.078c-0.017.157-.066,0.313-0.1,0.47l0.012,0a0.213,0.213,0,0,0,.177.156l0.218,0.071a1.5,1.5,0,0,1,.63.475l-0.125.385a1.5,1.5,0,0,1-.788.014l-0.218-.071a0.214,0.214,0,0,0-.236.022l-0.012,0c-0.066.146-.118,0.3-0.2,0.438a0.209,0.209,0,0,0,.119.183l0.186,0.135a1.5,1.5,0,0,1,.452.646l-0.238.328a1.506,1.506,0,0,1-.754-0.23l-0.186-.135a0.208,0.208,0,0,0-.223-0.053c-0.107.117-.226,0.218-0.342,0.324l0,0.005a0.215,0.215,0,0,0,.052.231l0.135,0.186a1.505,1.505,0,0,1,.23.754l-0.327.238a1.507,1.507,0,0,1-.646-0.452l-0.135-.186a0.214,0.214,0,0,0-.2-0.121h0c-0.134.076-.27,0.146-0.411,0.209v0a0.215,0.215,0,0,0-.022.236c0.036,0.111.039,0.121,0.071,0.218a1.51,1.51,0,0,1-.014.788l-0.385.125a1.516,1.516,0,0,1-.475-0.63l-0.07-.218a0.215,0.215,0,0,0-.157-0.178l0-.007c-0.154.032-.307,0.069-0.464,0.086a0.21,0.21,0,0,0-.086.211v0.229a1.511,1.511,0,0,1-.257.745H327.3a1.511,1.511,0,0,1-.257-0.745V48.044a0.21,0.21,0,0,0-.076-0.2c-0.158-.017-0.315-0.066-0.473-0.1l0,0.011a0.213,0.213,0,0,0-.156.178c-0.036.111-.04,0.121-0.071,0.218a1.5,1.5,0,0,1-.475.629l-0.385-.125a1.51,1.51,0,0,1-.014-0.788c0.032-.1.035-0.107,0.071-0.218a0.213,0.213,0,0,0-.022-0.236l0-.011c-0.147-.066-0.3-0.12-0.44-0.2a0.207,0.207,0,0,0-.183.119l-0.135.186a1.507,1.507,0,0,1-.646.452l-0.327-.238a1.505,1.505,0,0,1,.23-0.754l0.135-.186a0.213,0.213,0,0,0,.053-0.227c-0.115-.1-0.216-0.222-0.32-0.337l-0.006,0a0.214,0.214,0,0,0-.231.052l-0.186.135a1.5,1.5,0,0,1-.754.23l-0.238-.327a1.505,1.505,0,0,1,.452-0.646l0.186-.135a0.212,0.212,0,0,0,.12-0.2l0,0c-0.077-.134-0.146-0.271-0.21-0.411h0a0.214,0.214,0,0,0-.236-0.022l-0.218.071a1.5,1.5,0,0,1-.788-0.014l-0.125-.385a1.506,1.506,0,0,1,.629-0.475l0.218-.071a0.213,0.213,0,0,0,.178-0.157l0.006,0c-0.032-.153-0.068-0.3-0.085-0.461a0.212,0.212,0,0,0-.214-0.09h-0.229a2.155,2.155,0,0,1-.605-0.161c-0.019.1-.04,0.2-0.05,0.3h-0.033a0.22,0.22,0,0,1-.224.1h-0.236a1.549,1.549,0,0,0-.766.264v0.416a1.55,1.55,0,0,0,.766.264h0.236a0.22,0.22,0,0,1,.224.1h0.029c0.018,0.152.02,0.309,0.046,0.458l-0.014,0a0.22,0.22,0,0,1-.191.151l-0.228.061a1.548,1.548,0,0,0-.672.453c0.015,0.059.077,0.289,0.108,0.4a1.545,1.545,0,0,0,.808.057l0.228-.061a0.22,0.22,0,0,1,.241.036l0.019-.005c0.054,0.145.109,0.288,0.174,0.427l-0.014.008a0.221,0.221,0,0,1-.146.2l-0.2.118a1.546,1.546,0,0,0-.532.612l0.208,0.361a1.546,1.546,0,0,0,.8-0.155l0.2-.118a0.22,0.22,0,0,1,.242-0.028l0.014-.008c0.09,0.125.2,0.233,0.3,0.351l-0.027.027a0.221,0.221,0,0,1-.09.226l-0.167.167a1.547,1.547,0,0,0-.355.729l0.294,0.294a1.549,1.549,0,0,0,.729-0.355l0.167-.167a0.221,0.221,0,0,1,.227-0.09l0.027-.028c0.118,0.1.226,0.207,0.351,0.3l-0.009.016a0.22,0.22,0,0,1-.028.242l-0.118.2a1.544,1.544,0,0,0-.155.8l0.361,0.208a1.546,1.546,0,0,0,.612-0.532l0.118-.2a0.22,0.22,0,0,1,.195-0.145l0.011-.019c0.138,0.063.289,0.1,0.432,0.15l-0.012.047a0.22,0.22,0,0,1,.035.241l-0.061.228a1.545,1.545,0,0,0,.057.809l0.4,0.108a1.542,1.542,0,0,0,.453-0.672c0.028-.1.03-0.112,0.062-0.228a0.219,0.219,0,0,1,.151-0.191L326.482,50c0.149,0.024.294,0.06,0.445,0.075v0.047a0.22,0.22,0,0,1,.1.224v0.236a1.549,1.549,0,0,0,.264.767h0.417a1.549,1.549,0,0,0,.264-0.767V50.346a0.22,0.22,0,0,1,.1-0.224v-0.04c0.151-.018.307-0.021,0.455-0.046l0.007,0.025a0.219,0.219,0,0,1,.151.191c0.032,0.116.034,0.126,0.061,0.228a1.551,1.551,0,0,0,.454.672l0.4-.108a1.556,1.556,0,0,0,.057-0.809c-0.028-.1-0.03-0.112-0.061-0.228a0.22,0.22,0,0,1,.035-0.241l-0.007-.027c0.145-.053.288-0.106,0.427-0.17l0.01,0.018a0.221,0.221,0,0,1,.2.145l0.118,0.2a1.546,1.546,0,0,0,.612.532l0.361-.208a1.555,1.555,0,0,0-.155-0.8l-0.118-.2a0.22,0.22,0,0,1-.028-0.242L331.033,49c0.125-.089.233-0.2,0.351-0.3l0.027,0.028a0.221,0.221,0,0,1,.227.09l0.167,0.167a1.547,1.547,0,0,0,.728.355l0.295-.294a1.54,1.54,0,0,0-.356-0.729l-0.166-.167a0.219,0.219,0,0,1-.09-0.226l-0.027-.027c0.1-.118.207-0.225,0.3-0.351l0.013,0.008a0.22,0.22,0,0,1,.242.028l0.205,0.118a1.546,1.546,0,0,0,.8.155l0.208-.361a1.555,1.555,0,0,0-.532-0.612l-0.2-.118a0.221,0.221,0,0,1-.146-0.2l-0.014-.008c0.064-.138.105-0.288,0.159-0.431l0.034,0.009a0.219,0.219,0,0,1,.24-0.036l0.228,0.061a1.549,1.549,0,0,0,.809-0.057c0.031-.113.092-0.344,0.108-0.4a1.548,1.548,0,0,0-.672-0.453l-0.228-.061a0.22,0.22,0,0,1-.191-0.151l-0.028-.008c0.027-.152.07-0.3,0.085-0.454h0a0.219,0.219,0,0,1,.223-0.1h0.236a1.55,1.55,0,0,0,.767-0.264V43.809A1.549,1.549,0,0,0,334.061,43.545Z" transform="translate(-319 -35.5)"/>
</svg>
