<svg id="intelligence.svg" xmlns="http://www.w3.org/2000/svg" width="19.75" height="18.594" viewBox="0 0 19.75 18.594">
  <defs>
    <style>
      .cls-1 {
        fill: #fff;
        fill-rule: evenodd;
      }
    </style>
  </defs>
  <path id="Ellipse_7_copy_2" data-name="Ellipse 7 copy 2" class="cls-1" d="M37.669,416.207a9.288,9.288,0,0,1-18.1,1.888l1.806,0.011a7.6,7.6,0,0,0,14.595-1.9H30a1.74,1.74,0,0,1-.6.615,1.778,1.778,0,1,1,.614-2.472H37.74v1.857H37.669Zm-6.183-3.52-0.053.064a3.919,3.919,0,0,0-3-1.412,3.6,3.6,0,0,0-.456.06,1.749,1.749,0,0,1-.854,1.438,1.779,1.779,0,0,1-1.778-3.081,1.746,1.746,0,0,1,1.672-.019,5.6,5.6,0,0,1,1.415-.193,5.655,5.655,0,0,1,3.6,1.319h2.559a7.579,7.579,0,0,0-13.22,1.607l-1.8-.011a9.269,9.269,0,0,1,17.5-.513l0.381,0.774H31.494Zm-10.228,1.667h3.258l0,1.23a3.842,3.842,0,0,0,4.539,3.578,1.752,1.752,0,0,1,.857-1.491,1.778,1.778,0,0,1,1.778,3.08,1.747,1.747,0,0,1-1.678.017,5.524,5.524,0,0,1-1.583.253,5.726,5.726,0,0,1-5.645-4.811H21.262a1.75,1.75,0,0,1-1.482.854,1.778,1.778,0,1,1,0-3.556A1.75,1.75,0,0,1,21.257,414.354Z" transform="translate(-18 -406)"/>
</svg>
