<svg id="logo.svg" xmlns="http://www.w3.org/2000/svg" width="387.563" height="59.438" viewBox="0 0 387.563 59.438">
  <defs>
    <style>
      .cls-1 {
        fill: #70af44;
      }

      .cls-1, .cls-2, .cls-3 {
        fill-rule: evenodd;
      }

      .cls-2 {
        fill: #4371b7;
      }

      .cls-3 {
        fill: #fff;
      }
    </style>
  </defs>
  <path id="Shape_1_copy_4" data-name="Shape 1 copy 4" class="cls-1" d="M102.339,503.186h-0.013a20.312,20.312,0,0,1-20.3-20.236h0v-0.111a20.317,20.317,0,0,1,20.3-20.285h29.054v16.806H129.34V464.6H102.328a18.274,18.274,0,0,0-18.264,18.25v0.037a18.273,18.273,0,0,0,18.262,18.26h34.237l3.193,2.042H102.339Zm31.1-4.041h-31.1A16.273,16.273,0,0,1,86.067,482.97v-0.107A16.273,16.273,0,0,1,102.328,466.6h25.013v12.761H125.3V468.638H102.328a14.236,14.236,0,0,0-14.222,14.218,0.108,0.108,0,0,1,0,.028h0A14.228,14.228,0,0,0,102.339,497.1h27.906Zm-6.512-4.165H102.332a12.091,12.091,0,0,1-8.531-3.523l-0.026-.024-0.016-.016a12.112,12.112,0,0,1,0-17.1l0.015-.014,0.014-.014a12.1,12.1,0,0,1,8.548-3.532h20.837v8.6h-2.042V472.8H102.341a10.042,10.042,0,0,0-7.11,2.936l-0.007.009-0.013.012a10.069,10.069,0,0,0,0,14.221l0.005,0.006L95.225,490h0l0,0a10.033,10.033,0,0,0,7.1,2.94h21.4ZM102.339,488.9h15.077l3.192,2.044H102.339a8.068,8.068,0,1,1,0-16.136h16.793v4.555h-2.041v-2.513h-14.75A6.025,6.025,0,1,0,102.339,488.9Z" transform="translate(-82.031 -462.562)"/>
  <path id="Shape_1_copy_3" data-name="Shape 1 copy 3" class="cls-2" d="M160.41,516.049A20.292,20.292,0,0,1,146.055,522H117V505.2h2.042v14.764h27.012a18.275,18.275,0,0,0,18.263-18.251v-0.036a18.275,18.275,0,0,0-18.261-18.262H111.821l-3.194-2.042h37.43a20.313,20.313,0,0,1,20.3,20.238v0.112A20.278,20.278,0,0,1,160.41,516.049ZM114.946,485.41h31.1a16.274,16.274,0,0,1,16.27,16.176l0,0.006v0.1a16.272,16.272,0,0,1-16.262,16.264H121.043V505.2h2.042v10.723h22.97A14.239,14.239,0,0,0,160.278,501.7a0.041,0.041,0,0,1,0-.027h0a14.227,14.227,0,0,0-14.23-14.219H118.138Zm6.51,4.166h24.595a12.076,12.076,0,0,1,8.532,3.523l0.025,0.024,0.015,0.015a12.107,12.107,0,0,1,0,17.1l-0.014.015-0.015.015a12.1,12.1,0,0,1-8.546,3.531H125.207v-8.6h2.041v6.557h18.794a10.049,10.049,0,0,0,7.11-2.937l0.007-.009,0.013-.01a10.072,10.072,0,0,0,0-14.224l-0.006,0-0.008-.008v0l0,0a10.05,10.05,0,0,0-7.1-2.94h-21.4Zm24.589,6.082H130.967l-3.192-2.042h18.27a8.068,8.068,0,1,1,0,16.135H129.251V505.2h2.042v2.514h14.749A6.026,6.026,0,0,0,146.045,495.658Z" transform="translate(-82.031 -462.562)"/>
  <path id="Shape_1_copy" data-name="Shape 1 copy" class="cls-3" d="M469.6,501.279h-1.3l-6.075-8.621-6.036,8.621h-1.374l6.76-9.595-6.76-9.522h1.374l6.036,8.549,6.075-8.549h1.3l-6.723,9.522Zm-18.655-18.835h0.994v18.835h-0.994V482.444Zm0-7.462h0.994v3.23h-0.994v-3.23Zm-4.135,15.74c0-2.592-.5-4.794-1.919-6.218a5.856,5.856,0,0,0-4.407-1.6,6.23,6.23,0,0,0-4.871,2.17c-1.2,1.561-1.454,2.7-1.454,5.646v10.557h-1V490.722c0.069-2.948-.39-4.3-1.351-5.578a6.187,6.187,0,0,0-4.975-2.238,5.719,5.719,0,0,0-4.583,2.061,7.943,7.943,0,0,0-1.743,5.58v10.732h-1V482.444h1v3.518a7.334,7.334,0,0,1,11.87-1.669,11.639,11.639,0,0,1,1.279,2.2,6.829,6.829,0,0,1,1.354-2.2,7.378,7.378,0,0,1,5.47-2.311,7.015,7.015,0,0,1,5.154,1.883c1.562,1.527,2.167,3.982,2.167,6.857v10.557h-0.995V490.722ZM415.74,496.41a9.462,9.462,0,0,1-8.814,5.333,9.881,9.881,0,1,1,0-19.761c4.549,0,7.818,2.807,8.814,5.436v-4.974h1v18.835h-1V496.41Zm-0.534-8.031A8.954,8.954,0,0,0,398,491.86V491.9a8.732,8.732,0,0,0,9.03,8.919,8.913,8.913,0,0,0,8.813-9.167A8.376,8.376,0,0,0,415.206,488.379Zm-21.077,2.773c0-5.082-2.491-8.317-7.642-8.246-4.479.071-7.642,2.594-7.642,7.534v10.839h-1V482.444h1c0,1.279,0,2.523-.034,4.085,1.278-3.268,4.548-4.618,7.887-4.547,5.616,0.14,8.423,3.518,8.423,9.17v10.127h-0.992V491.152Zm-30.481,17.7,3.339-7.6-7.463-18.8h1.1l6.964,17.45,7.43-17.45h1.172l-11.408,26.4h-1.137Zm-7.242-12.439a9.462,9.462,0,0,1-8.814,5.333,9.881,9.881,0,1,1,0-19.761c4.549,0,7.818,2.807,8.814,5.436V474.982h1v26.3h-1V496.41Zm-2.455-10.946a8.9,8.9,0,0,0-6.359-2.558,8.736,8.736,0,0,0-8.923,8.954V491.9A8.923,8.923,0,1,0,353.951,485.464ZM315.8,492.787a6.3,6.3,0,0,0,6.5,5.9,6.005,6.005,0,0,0,5.584-3.267h3.837a10.643,10.643,0,0,1-3.91,4.8,9.824,9.824,0,0,1-5.511,1.636,10.236,10.236,0,1,1,7.112-17.629,10.433,10.433,0,0,1,2.914,8.566H315.8Zm6.467-8.245a6.149,6.149,0,0,0-6.4,5.364h12.793A6.228,6.228,0,0,0,322.27,484.542Zm-21.757,25.2c-5.472,0-8.67-3.2-9.595-6.433h4.265a5.824,5.824,0,0,0,2.132,2.241,6.3,6.3,0,0,0,3.343,1.028,6.5,6.5,0,0,0,6.574-6.715v-1.99a7.571,7.571,0,0,1-6.967,3.981,9.821,9.821,0,0,1-9.987-10.167c0-6.04,4.373-10.3,9.987-10.3a7.745,7.745,0,0,1,6.967,3.836v-3.269h3.7V499.04c0,3.376-.855,5.544-2.275,7.179A10.879,10.879,0,0,1,300.513,509.738Zm5.226-22.6a6.177,6.177,0,0,0-5.081-2.275,6.551,6.551,0,0,0-6.682,6.716v0.035a6.71,6.71,0,0,0,11.443,4.836,6.948,6.948,0,0,0,1.883-4.728A7.456,7.456,0,0,0,305.739,487.135ZM285.19,490.8c0-3.485-1.35-5.969-5.117-5.935-3.624.034-5.295,2.309-5.295,5.651v10.768h-3.7V481.946h3.486v2.987c0.922-1.992,3.089-3.592,6.537-3.554,6.182,0.071,7.818,4.549,7.818,8.563v11.337H285.19V490.8ZM264.821,497.9a7.806,7.806,0,0,1-7.18,3.947c-6.219,0-9.918-4.836-9.918-10.239a9.841,9.841,0,0,1,9.918-10.232,7.8,7.8,0,0,1,7.18,3.979v-3.412h3.695v19.333h-3.695V497.9Zm-0.535-9.1a6.452,6.452,0,0,0-6.181-3.979,6.614,6.614,0,0,0-6.683,6.824v0.033a6.636,6.636,0,0,0,6.752,6.718,6.329,6.329,0,0,0,6.009-3.837,7.3,7.3,0,0,0,.672-2.881A6.127,6.127,0,0,0,264.286,488.805Zm-21.647,2.1a7.353,7.353,0,0,0-1.1-4.336,4.831,4.831,0,0,0-4.051-1.708,4.9,4.9,0,0,0-4.087,1.777,6.049,6.049,0,0,0-1.175,3.734v10.908h-3.7v-26.3h3.7v9.664c1.137-2.274,3.77-3.305,6.292-3.267,3.021,0,4.939.993,6.184,2.7a11.264,11.264,0,0,1,1.669,6.644v10.557h-3.729V490.9Zm-24.955,7.5a6.415,6.415,0,0,0,6.042-3.91h3.8a10.3,10.3,0,1,1,0-5.615h-3.8a6.325,6.325,0,0,0-6.042-4.05,6.227,6.227,0,0,0-4.725,1.884,7.025,7.025,0,0,0-1.885,4.9A6.531,6.531,0,0,0,217.684,498.4Zm-31.473-35.846h0.719V522h-0.719V462.555Z" transform="translate(-82.031 -462.562)"/>
</svg>
