<svg xmlns="http://www.w3.org/2000/svg" width="79.344" height="79.312" viewBox="0 0 79.344 79.312">
  <defs>
    <style>
      .cls-1 {
        fill: #eb6a23;
        fill-rule: evenodd;
      }
    </style>
  </defs>
  <path id="network-monitor.svg" class="cls-1" d="M250.516,280.42A39.67,39.67,0,1,1,290.2,240.75,39.677,39.677,0,0,1,250.516,280.42Zm0-76.508a36.812,36.812,0,0,0-27.889,60.854l24.2-24.2a2.63,2.63,0,0,1-.258-1.124,2.678,2.678,0,1,1,1.7,2.472l-1.39,1.405a7.13,7.13,0,0,0,2.351,1.962,13.676,13.676,0,0,1-4.037-.256l-1.578,1.6c1.46,1.327,3.787,2.98,5.615,2.98h0s-1.975.757-7.36-1.216l-1.553,1.571c2.271,2.088,5.805,4.341,8.912,4.341h0a19.209,19.209,0,0,1-10.752-2.48l-1.459,1.475c3.1,2.884,7.819,5.7,12.21,5.7h0s-5.692,1.388-14.071-3.817l-1.45,1.466c3.933,3.694,9.849,7.046,15.519,7.046h0s-7.727,1.738-17.4-5.14l-1.546,1.564c4.828,4.441,11.956,8.277,18.949,8.277h0s-10.447,1.568-20.731-6.476l-1.4,1.411c5.614,5.344,13.878,9.763,22.123,9.763h0s-11.342,2.329-24.035-7.832l-1.1,1.112A36.82,36.82,0,1,0,250.514,203.912Z" transform="translate(-210.844 -201.094)"/>
</svg>
