<svg xmlns="http://www.w3.org/2000/svg" width="33.687" height="42.781" viewBox="0 0 33.687 42.781">
  <defs>
    <style>
      .cls-1 {
        fill: #fff;
        fill-rule: evenodd;
      }
    </style>
  </defs>
  <path id="no-avatar-white.svg" class="cls-1" d="M124.705,377.675v0.074l-0.162-.037-0.162.037v-0.074L107.7,373.85s1.161-8.669,1.421-9.793a2.738,2.738,0,0,1,1.683-1.823l7.457-2.357,6.283,7.318,6.283-7.318,7.457,2.357a2.735,2.735,0,0,1,1.683,1.823c0.26,1.124,1.422,9.793,1.422,9.793Zm-0.195-18.133H124.5c-3.81-.007-10.028-5.762-9.444-14.726,0.582-8.946,7.763-9.848,9.447-9.835,1.831-.026,8.866.889,9.448,9.835C134.538,353.78,128.32,359.535,124.51,359.542Zm5.255,14.839,6.6-1.636,0.192-1.668-1.112.5,0.016-.9-5.6,2.279Z" transform="translate(-107.688 -334.969)"/>
</svg>
