<svg xmlns="http://www.w3.org/2000/svg" width="33.688" height="42.781" viewBox="0 0 33.688 42.781">
  <defs>
    <style>
      .cls-1 {
        fill: #717171;
        fill-rule: evenodd;
      }
    </style>
  </defs>
  <path id="no-avatar-grey.svg" class="cls-1" d="M45.705,67.675V67.75l-0.162-.037-0.162.037V67.675L28.7,63.85s1.161-8.669,1.421-9.793A2.736,2.736,0,0,1,31.8,52.234l7.457-2.357,6.283,7.317,6.283-7.317,7.457,2.357a2.737,2.737,0,0,1,1.683,1.823c0.26,1.124,1.421,9.793,1.421,9.793Zm-0.2-18.133H45.5c-3.81-.007-10.028-5.762-9.445-14.726,0.582-8.945,7.763-9.848,9.448-9.834,1.831-.026,8.865.889,9.448,9.834C55.538,43.78,49.321,49.535,45.51,49.542Zm5.255,14.839,6.6-1.636,0.192-1.669-1.112.5,0.016-.9-5.605,2.279Z" transform="translate(-28.688 -24.969)"/>
</svg>
