<svg xmlns="http://www.w3.org/2000/svg" width="16.344" height="16.312" viewBox="0 0 16.344 16.312">
  <defs>
    <style>
      .cls-1 {
        fill-rule: evenodd;
      }
    </style>
  </defs>
  <path id="pencil.svg" class="cls-1" d="M383.61,132.4a1.094,1.094,0,0,0-1.55,0l-0.388.388-5.427,5.431h0l-0.171.172s-0.545.549-1.777,4.522c-0.009.028-.017,0.056-0.026,0.084-0.022.071-.044,0.143-0.066,0.217l-0.06.2-0.051.169c-0.039.13-.079,0.263-0.119,0.4a1.567,1.567,0,0,0-.06,1.222,1.6,1.6,0,0,0,1.218-.06l0.4-.119,0.176-.053,0.186-.057,0.228-.07,0.066-.021c3.783-1.177,4.462-1.73,4.518-1.78h0l0,0,0.175-.176,0.012,0.012,5.427-5.431h0l0.388-.388a1.1,1.1,0,0,0,0-1.552Zm-3.525,9.936-0.018.012-0.012.008-0.015.009-0.015.009a12.536,12.536,0,0,1-2,.852c-0.151.054-.314,0.112-0.486,0.171l-1.828-1.829c0.06-.172.117-0.337,0.172-0.489a12.564,12.564,0,0,1,.85-2l0.008-.012a0.162,0.162,0,0,0,.01-0.018,0.083,0.083,0,0,0,.008-0.012l0.012-.018,0.134-.134,3.313,3.316Zm9.728-9.936-3.1-3.1a1.1,1.1,0,0,0-1.551,0l-0.775.775a1.1,1.1,0,0,0,0,1.552l3.1,3.1a1.1,1.1,0,0,0,1.551,0l0.775-.775A1.1,1.1,0,0,0,389.813,132.4Z" transform="translate(-373.812 -129)"/>
</svg>
