<svg id="reports.svg" xmlns="http://www.w3.org/2000/svg" width="21.469" height="18.282" viewBox="0 0 21.469 18.282">
  <defs>
    <style>
      .cls-1 {
        fill: #fff;
        fill-rule: evenodd;
      }
    </style>
  </defs>
  <path id="Shape_73_copy_2" data-name="Shape 73 copy 2" class="cls-1" d="M29.625,474.469h5.344v1.344H29.625v-1.344Zm0,2.407h4.456v1.347H29.625v-1.347Zm0,7.436v-1.343h4.438v1.343H29.625Zm0-5h5.75v1.312h-5.75v-1.312ZM26.584,487.2v-1.76H36.738v-12.2H29.625v-1.683h8.759V487.2h-11.8ZM16.9,468.9H28.7v15.644H16.9V468.9Zm1.67,13.94h8.452v-12.2H18.567v12.2Zm3.36-4.856-1.861,1.28-0.917-.805,2.711-2.148,1.776,1.555,1.987-2.218,0.93,0.817-2.866,3.078Zm-2.458-2.512v-1.344h3.719v1.344H19.469Zm0-3.656h6.125v1.374H19.469v-1.374Zm1.969,9.843H19.469v-1.312h1.969v1.312Z" transform="translate(-16.906 -468.906)"/>
</svg>
