<svg xmlns="http://www.w3.org/2000/svg" width="18.938" height="18.562" viewBox="0 0 18.938 18.562">
  <defs>
    <style>
      .cls-1 {
        fill-rule: evenodd;
      }
    </style>
  </defs>
  <path id="systems-grid.svg" class="cls-1" d="M489.047,33.719a4.531,4.531,0,1,1-4.516,4.531A4.524,4.524,0,0,1,489.047,33.719Zm0.047,10.313a4.125,4.125,0,1,1-4.125,4.125A4.125,4.125,0,0,1,489.094,44.031ZM499,45.8a2.4,2.4,0,1,1-2.4,2.4A2.4,2.4,0,0,1,499,45.8Zm-0.058-12.082a4.531,4.531,0,1,1-4.532,4.531A4.531,4.531,0,0,1,498.938,33.719Z" transform="translate(-484.531 -33.719)"/>
</svg>
