<svg xmlns="http://www.w3.org/2000/svg" width="20" height="20" viewBox="0 0 20 20">
  <defs>
    <style>
      .cls-1 {
        fill-rule: evenodd;
      }
    </style>
  </defs>
  <path id="system-icon.svg" class="cls-1" d="M465.5,115a9.991,9.991,0,1,1,9.992-9.991A9.992,9.992,0,0,1,465.5,115ZM457.1,103.024a1.819,1.819,0,0,0,.791.534l0.268,0.072a0.261,0.261,0,0,1,.085.049v-0.268a1.78,1.78,0,0,1,.877-0.3h0.27a0.242,0.242,0,0,0,.24-0.093c0.02-.184.078-0.368,0.116-0.552l-0.015,0a0.252,0.252,0,0,0-.209-0.184l-0.256-.083a1.772,1.772,0,0,1-.323-0.18c-0.075.164-.117,0.342-0.177,0.512l-0.037-.01a0.259,0.259,0,0,1-.284.042l-0.268-.072a1.822,1.822,0,0,0-.952.067C457.209,102.62,457.136,102.891,457.1,103.024Zm1.047-2.529c-0.035.062-.176,0.3-0.245,0.424a1.825,1.825,0,0,0,.626.72l0,0a0.043,0.043,0,0,0,0-.007c0.041-.128.126-0.387,0.147-0.453a1.775,1.775,0,0,1,.928-0.017l0.256,0.084a0.253,0.253,0,0,0,.278-0.026l0.014,0c0.078-.171.14-0.353,0.232-0.514a0.248,0.248,0,0,0-.14-0.216l-0.218-.159a1.249,1.249,0,0,1-.185-0.187,0.26,0.26,0,0,1,.1.264l0.019,0.018c-0.116.14-.246,0.268-0.352,0.417h0a0.26,0.26,0,0,1-.285-0.033l-0.24-.139A1.819,1.819,0,0,0,458.148,100.5Zm3.967-2.442a1.821,1.821,0,0,0-.72-0.626l-0.424.245a1.819,1.819,0,0,0,.182.937l0.139,0.24a0.258,0.258,0,0,1,.033.283c-0.149.106-.277,0.237-0.417,0.353l-0.018-.018a0.26,0.26,0,0,1-.267-0.106l-0.2-.2a1.821,1.821,0,0,0-.857-0.418l-0.347.346a1.822,1.822,0,0,0,.418.858l0.194,0.194a1.222,1.222,0,0,1-.343-0.568c0.078-.108.239-0.329,0.28-0.385a1.774,1.774,0,0,1,.887.271l0.218,0.159a0.247,0.247,0,0,0,.266.062c0.124-.136.262-0.254,0.4-0.377l-0.008-.011a0.252,0.252,0,0,0-.061-0.272l-0.158-.218a1.764,1.764,0,0,1-.271-0.887l0.385-.28a1.748,1.748,0,0,1,.75.522Zm0.221,0.323,0.01,0.013a0.124,0.124,0,0,0,.018.015C462.355,98.4,462.346,98.385,462.336,98.376Zm1.164-1.751-0.473.127a1.822,1.822,0,0,0-.067.952l0.072,0.268a0.259,0.259,0,0,1-.042.283l0,0.006c-0.173.064-.342,0.128-0.508,0.2h0a0.386,0.386,0,0,1-.06-0.012,0.37,0.37,0,0,0,.161.078l0,0.006c0.159-.09.32-0.172,0.487-0.248l0-.006a0.252,0.252,0,0,0,.026-0.277c-0.042-.131-0.046-0.142-0.083-0.257a1.786,1.786,0,0,1,.016-0.927l0.453-.147a1.377,1.377,0,0,1,.47.562A1.439,1.439,0,0,0,463.5,96.625Zm1.751-.231a1.82,1.82,0,0,0-.311.9v0.278a0.322,0.322,0,0,1-.05.187,0.271,0.271,0,0,0,.072-0.221V97.27a1.784,1.784,0,0,1,.3-0.876h-0.011Zm0.8,1.18V97.3a2.6,2.6,0,0,0-.221-0.794,2.532,2.532,0,0,1,.212.767v0.27a0.306,0.306,0,0,0,.01.038S466.051,97.576,466.051,97.574Zm-5.285,4.538a4.977,4.977,0,0,0-.227,1.963l2.607-.554a2.331,2.331,0,0,1,2.647-2.217L466.6,98.82A4.963,4.963,0,0,0,460.766,102.112Zm6.158,3.427a2.356,2.356,0,0,1-3.666-1.152l-2.56.545a4.958,4.958,0,0,0,7.971,2.545Zm-1.24-2.452a0.593,0.593,0,1,0,.381.747A0.593,0.593,0,0,0,465.684,103.087Zm2.069,1.3a2.353,2.353,0,0,1-.242.508l1.783,1.981a4.95,4.95,0,0,0-1.869-7.786l-0.807,2.484A2.365,2.365,0,0,1,467.753,104.382Zm0.755-5.917h0c-0.165-.076-0.343-0.123-0.513-0.187L468,98.255a0.26,0.26,0,0,1-.041-0.283c0.036-.137.039-0.149,0.072-0.268a1.832,1.832,0,0,0-.067-0.952l-0.473-.127a1.825,1.825,0,0,0-.534.791v0h0a1.783,1.783,0,0,1,.558-0.741l0.453,0.147a1.774,1.774,0,0,1,.017.927c-0.038.114-.041,0.126-0.084,0.257a0.252,0.252,0,0,0,.026.277l0,0.015c0.169,0.076.349,0.136,0.508,0.227a0.346,0.346,0,0,0,.144-0.075A0.207,0.207,0,0,1,468.508,98.465Zm0.094-.035a0.239,0.239,0,0,0,.05-0.041l0.025-.035A0.414,0.414,0,0,1,468.6,98.43Zm2.82,0.318a1.823,1.823,0,0,0-.858.418l-0.2.2a0.258,0.258,0,0,1-.266.106l-0.018.017c-0.14-.117-0.269-0.247-0.418-0.353a0.257,0.257,0,0,1,.034-0.282l0.139-.24a1.829,1.829,0,0,0,.182-0.937l-0.425-.245a1.828,1.828,0,0,0-.72.626c-0.034.06-.054,0.094-0.075,0.13l0.009-.013a1.776,1.776,0,0,1,.76-0.532l0.386,0.28a1.776,1.776,0,0,1-.272.887l-0.158.218a0.245,0.245,0,0,0-.063.263c0.138,0.125.257,0.265,0.382,0.4l0.01-.007a0.25,0.25,0,0,0,.271-0.061l0.219-.159a1.771,1.771,0,0,1,.887-0.271l0.28,0.385a1.069,1.069,0,0,1-.3.511l0.136-.137a1.822,1.822,0,0,0,.418-0.858Zm1.421,1.748a1.818,1.818,0,0,0-.936.182l-0.241.139a0.259,0.259,0,0,1-.284.033h0c-0.1-.149-0.235-0.277-0.351-0.417l0.018-.018a0.3,0.3,0,0,1,.081-0.223,1.219,1.219,0,0,1-.149.146l-0.219.158a0.251,0.251,0,0,0-.141.24l-0.006,0c0.091,0.159.173,0.319,0.248,0.486l0.008,0a0.252,0.252,0,0,0,.277.026l0.257-.083a1.763,1.763,0,0,1,.927.016c0.022,0.065.1,0.318,0.146,0.447a1.788,1.788,0,0,0,.611-0.709Zm0.921,2.056a1.822,1.822,0,0,0-.952-0.067l-0.268.072a0.258,0.258,0,0,1-.283-0.042l-0.014,0c-0.062-.169-0.123-0.336-0.2-0.5a1.735,1.735,0,0,1-.312.172l-0.257.084a0.252,0.252,0,0,0-.209.184l-0.013,0c0.037,0.18.08,0.357,0.1,0.541a0.249,0.249,0,0,0,.251.1h0.27a1.78,1.78,0,0,1,.877.3v0.262a0.239,0.239,0,0,1,.075-0.043l0.268-.072a1.826,1.826,0,0,0,.791-0.534C473.855,102.891,473.783,102.62,473.764,102.551Zm-0.545,1.913h-0.277a0.259,0.259,0,0,1-.263-0.113h-0.031c-0.014-.119-0.025-0.239-0.036-0.359a2.56,2.56,0,0,1-.732.2h-0.27a0.248,0.248,0,0,0-.24.091c-0.02.185-.077,0.369-0.115,0.554l0.014,0a0.252,0.252,0,0,0,.209.184l0.257,0.084a1.772,1.772,0,0,1,.741.558c-0.022.066-.106,0.326-0.148,0.453a1.763,1.763,0,0,1-.927.016l-0.257-.083a0.252,0.252,0,0,0-.277.026l-0.014,0c-0.077.171-.139,0.354-0.231,0.515a0.242,0.242,0,0,0,.139.215l0.219,0.159a1.767,1.767,0,0,1,.532.76l-0.28.385a1.771,1.771,0,0,1-.887-0.271l-0.219-.159a0.248,0.248,0,0,0-.263-0.063c-0.125.138-.265,0.257-0.4,0.381l0,0.007a0.25,0.25,0,0,0,.061.271l0.159,0.219a1.771,1.771,0,0,1,.271.887l-0.386.28a1.779,1.779,0,0,1-.76-0.532l-0.158-.219a0.251,0.251,0,0,0-.24-0.141v0c-0.158.09-.318,0.171-0.483,0.246v0a0.253,0.253,0,0,0-.026.278c0.042,0.131.046,0.142,0.083,0.256a1.788,1.788,0,0,1-.016.928l-0.453.147a1.781,1.781,0,0,1-.559-0.741c-0.037-.114-0.04-0.125-0.083-0.256a0.25,0.25,0,0,0-.184-0.209l0-.009c-0.181.038-.36,0.081-0.545,0.1a0.247,0.247,0,0,0-.1.249v0.269a1.771,1.771,0,0,1-.3.878h-0.476a1.771,1.771,0,0,1-.3-0.878v-0.269a0.247,0.247,0,0,0-.09-0.238c-0.186-.02-0.371-0.077-0.557-0.115l0,0.013a0.25,0.25,0,0,0-.184.209c-0.043.131-.047,0.142-0.084,0.257a1.761,1.761,0,0,1-.558.74l-0.453-.147a1.763,1.763,0,0,1-.016-0.927l0.083-.257a0.252,0.252,0,0,0-.026-0.277l0-.014c-0.172-.078-0.355-0.14-0.517-0.233a0.246,0.246,0,0,0-.216.14l-0.158.218a1.77,1.77,0,0,1-.76.532l-0.385-.28a1.764,1.764,0,0,1,.271-0.887l0.158-.218a0.245,0.245,0,0,0,.062-0.267c-0.135-.123-0.253-0.261-0.376-0.4l-0.007,0a0.252,0.252,0,0,0-.272.061l-0.218.158a1.767,1.767,0,0,1-.887.271c-0.079-.108-0.24-0.329-0.28-0.385a1.77,1.77,0,0,1,.532-0.76l0.218-.158a0.254,0.254,0,0,0,.142-0.24l0,0c-0.09-.158-0.172-0.318-0.247-0.484h0a0.253,0.253,0,0,0-.278-0.026l-0.256.084a1.776,1.776,0,0,1-.928-0.017c-0.041-.127-0.126-0.387-0.147-0.453a1.775,1.775,0,0,1,.741-0.558l0.256-.083a0.25,0.25,0,0,0,.209-0.184l0.007,0c-0.037-.18-0.08-0.358-0.1-0.542a0.247,0.247,0,0,0-.251-0.105h-0.27a2.524,2.524,0,0,1-.711-0.19c-0.022.116-.047,0.231-0.059,0.351h-0.039a0.259,0.259,0,0,1-.263.113h-0.278a1.819,1.819,0,0,0-.9.311v0.49a1.819,1.819,0,0,0,.9.311h0.278a0.259,0.259,0,0,1,.263.113h0.033c0.022,0.179.025,0.363,0.055,0.539l-0.017.005a0.258,0.258,0,0,1-.224.177l-0.268.072a1.819,1.819,0,0,0-.791.534c0.018,0.069.091,0.34,0.126,0.473a1.833,1.833,0,0,0,.952.067l0.268-.072a0.259,0.259,0,0,1,.284.042l0.022-.006c0.064,0.17.128,0.338,0.2,0.5l-0.017.01a0.259,0.259,0,0,1-.171.23l-0.24.139a1.825,1.825,0,0,0-.626.72c0.036,0.061.176,0.305,0.245,0.424a1.819,1.819,0,0,0,.937-0.182l0.24-.139a0.26,0.26,0,0,1,.285-0.033l0.016-.009c0.105,0.147.234,0.273,0.349,0.412l-0.032.032a0.258,0.258,0,0,1-.1.266l-0.2.2a1.824,1.824,0,0,0-.418.858l0.347,0.346a1.821,1.821,0,0,0,.857-0.418l0.2-.2a0.262,0.262,0,0,1,.267-0.106l0.033-.032c0.138,0.115.265,0.243,0.412,0.348l-0.01.018a0.26,0.26,0,0,1-.033.285l-0.139.24a1.818,1.818,0,0,0-.182.936l0.424,0.245a1.813,1.813,0,0,0,.72-0.625l0.139-.241a0.261,0.261,0,0,1,.23-0.171l0.012-.022c0.163,0.075.34,0.116,0.509,0.176l-0.015.056a0.258,0.258,0,0,1,.042.283c-0.037.137-.04,0.149-0.072,0.269a1.819,1.819,0,0,0,.067.951l0.473,0.127a1.816,1.816,0,0,0,.533-0.791c0.033-.119.036-0.131,0.072-0.268a0.261,0.261,0,0,1,.178-0.225l0.02-.072c0.175,0.027.345,0.071,0.523,0.088V112.2a0.258,0.258,0,0,1,.114.263v0.278a1.819,1.819,0,0,0,.311.9h0.49a1.829,1.829,0,0,0,.31-0.9v-0.278a0.258,0.258,0,0,1,.114-0.263v-0.047c0.178-.021.36-0.024,0.535-0.054l0.008,0.029a0.261,0.261,0,0,1,.178.225l0.072,0.268a1.826,1.826,0,0,0,.534.791l0.473-.127a1.83,1.83,0,0,0,.067-0.951c-0.033-.12-0.036-0.132-0.072-0.269a0.259,0.259,0,0,1,.041-0.283l-0.008-.032c0.17-.063.338-0.124,0.5-0.2l0.013,0.021a0.261,0.261,0,0,1,.23.171l0.138,0.241a1.819,1.819,0,0,0,.72.625c0.12-.068.363-0.209,0.425-0.245a1.828,1.828,0,0,0-.182-0.936l-0.139-.24a0.26,0.26,0,0,1-.033-0.285l-0.01-.018c0.147-.105.273-0.233,0.412-0.348l0.033,0.032a0.26,0.26,0,0,1,.266.106l0.2,0.2a1.824,1.824,0,0,0,.858.418l0.346-.346a1.824,1.824,0,0,0-.418-0.858l-0.2-.2a0.26,0.26,0,0,1-.106-0.266l-0.032-.032c0.116-.138.245-0.265,0.35-0.412l0.016,0.009a0.259,0.259,0,0,1,.284.033l0.241,0.139a1.818,1.818,0,0,0,.936.182l0.245-.424a1.808,1.808,0,0,0-.626-0.72l-0.24-.139a0.259,0.259,0,0,1-.171-0.23l-0.016-.01c0.075-.162.122-0.338,0.186-0.507l0.04,0.011a0.258,0.258,0,0,1,.283-0.042l0.268,0.072a1.833,1.833,0,0,0,.952-0.067c0.036-.133.108-0.4,0.127-0.473a1.826,1.826,0,0,0-.791-0.534l-0.268-.072a0.26,0.26,0,0,1-.225-0.177l-0.033-.009c0.032-.179.082-0.352,0.1-0.535h0a0.259,0.259,0,0,1,.263-0.113h0.277a1.823,1.823,0,0,0,.9-0.311v-0.49A1.823,1.823,0,0,0,473.219,104.464Z" transform="translate(-455.5 -95)"/>
</svg>
