<svg xmlns="http://www.w3.org/2000/svg" width="16.438" height="20" viewBox="0 0 16.438 20">
  <defs>
    <style>
      .cls-1 {
        fill-rule: evenodd;
      }
    </style>
  </defs>
  <path id="user-icon.svg" class="cls-1" d="M501.547,114.389v-3.5l-0.692,3.628a36.388,36.388,0,0,1-4.4.479v0.019c-0.152,0-.3,0-0.457-0.005s-0.3.005-.456,0.005v-0.019a36.388,36.388,0,0,1-4.4-.479l-0.692-3.628v3.5a12.074,12.074,0,0,1-2.663-1.235s0-3.828,0-4.356a0.935,0.935,0,0,1,.1-0.613,5.968,5.968,0,0,1,5.968-3.835,4.018,4.018,0,0,0,4.3,0,5.968,5.968,0,0,1,5.968,3.835,0.943,0.943,0,0,1,.1.613c0,0.528.006,4.356,0.006,4.356A12.338,12.338,0,0,1,501.547,114.389Zm-5.515-10.65a4.372,4.372,0,1,1,4.372-4.371A4.372,4.372,0,0,1,496.032,103.739Z" transform="translate(-487.781 -95)"/>
</svg>
