<?xml version="1.0" standalone="no"?>
<!DOCTYPE svg PUBLIC "-//W3C//DTD SVG 20010904//EN"
 "http://www.w3.org/TR/2001/REC-SVG-20010904/DTD/svg10.dtd">
<svg version="1.0" xmlns="http://www.w3.org/2000/svg"
 width="300.000000pt" height="300.000000pt" viewBox="0 0 300.000000 300.000000"
 preserveAspectRatio="xMidYMid meet">
<metadata>
Created by potrace 1.11, written by Peter Selinger 2001-2013
</metadata>
<g transform="translate(0.000000,300.000000) scale(0.100000,-0.100000)"
fill="#000000" stroke="none">
<path d="M1652 2650 c-13 -10 -44 -22 -70 -25 -26 -3 -55 -10 -64 -16 -23 -12
-48 -12 -48 1 0 22 -32 7 -77 -36 -41 -40 -51 -45 -79 -41 -30 5 -82 -7 -112
-26 -7 -5 -18 -4 -25 1 -22 19 -65 1 -86 -34 -12 -19 -28 -34 -39 -34 -10 0
-21 -3 -25 -6 -3 -3 -32 -7 -64 -9 -32 -2 -67 -6 -78 -8 -11 -3 -26 -6 -32 -6
-7 -1 -13 -8 -13 -16 0 -8 -18 -26 -40 -40 -22 -14 -40 -32 -40 -41 0 -31 -89
-93 -124 -87 -21 4 -37 -9 -106 -84 -30 -33 -54 -41 -65 -23 -3 6 -20 10 -37
10 -21 0 -31 -6 -35 -20 -3 -11 -9 -20 -14 -20 -18 0 -120 -109 -134 -144 -16
-39 -20 -100 -6 -92 5 4 7 -4 5 -16 l-5 -23 17 23 c9 12 20 22 24 22 10 0 1
-40 -12 -57 -13 -16 -1 -33 22 -33 10 0 21 -7 24 -16 5 -12 2 -15 -12 -12 -11
3 -27 1 -36 -4 -9 -5 -16 -5 -16 -1 0 15 -41 12 -47 -3 -3 -8 -13 -14 -22 -14
-10 0 -31 -15 -48 -32 -17 -18 -36 -37 -42 -43 -25 -22 -60 -65 -53 -65 4 0
-1 -5 -10 -11 -10 -5 -18 -19 -18 -30 0 -19 1 -19 16 -4 9 9 19 13 22 10 3 -3
0 -11 -6 -17 -16 -16 -15 -41 2 -35 7 3 21 -4 31 -16 l18 -20 19 26 c23 31 38
35 36 10 -3 -41 2 -54 20 -51 9 2 16 10 14 16 -1 7 2 12 8 12 5 0 10 -5 10
-11 0 -6 10 -9 23 -7 15 2 23 11 25 30 3 28 28 40 90 43 37 2 42 -11 10 -25
-29 -12 -58 -35 -58 -45 0 -4 -11 -18 -25 -31 -14 -13 -25 -28 -25 -34 0 -12
22 -9 32 5 5 6 12 5 20 -3 16 -16 28 -15 28 2 0 12 20 26 36 26 2 0 4 -18 4
-41 0 -36 2 -40 20 -34 11 3 20 2 20 -3 0 -5 15 -9 33 -8 19 1 37 -4 44 -14
12 -13 14 -13 25 0 13 15 71 20 84 7 4 -3 15 -2 24 3 16 9 18 5 15 -26 -3 -34
-2 -35 21 -30 17 5 24 2 24 -9 0 -17 5 -18 29 -6 14 8 17 6 17 -12 -1 -17 4
-21 19 -19 11 2 27 4 35 4 8 1 21 8 29 15 11 11 16 12 21 2 6 -9 15 -4 34 16
14 15 26 24 27 19 0 -5 4 0 9 11 8 19 9 19 9 -3 1 -13 9 -40 18 -59 14 -31 18
-33 28 -19 7 8 15 13 18 9 4 -3 7 6 7 20 0 17 5 27 15 27 13 0 13 -3 3 -20
-15 -23 -1 -41 15 -20 7 8 21 16 32 16 11 1 29 5 40 10 18 7 18 6 5 -7 -8 -8
-23 -18 -33 -22 -19 -7 -20 -38 -1 -44 6 -2 24 8 40 22 31 27 72 33 92 13 9
-9 12 -9 12 0 0 7 7 12 15 12 18 0 16 11 21 -90 2 -47 6 -107 9 -135 16 -133
17 -157 11 -188 -5 -26 -16 -39 -46 -56 -22 -12 -40 -26 -40 -30 0 -9 -78 -61
-91 -61 -5 0 -9 -4 -9 -9 0 -19 -50 -24 -245 -25 -222 -2 -233 -5 -252 -64 -9
-28 -8 -38 3 -49 8 -8 17 -26 20 -41 14 -69 35 -108 67 -127 31 -19 61 -19
842 -20 864 -1 844 -2 886 46 8 10 22 43 29 74 8 34 22 62 34 71 18 12 19 16
6 24 -14 9 -16 13 -19 45 -2 30 -44 39 -191 42 -80 1 -156 4 -170 6 -37 5
-120 17 -165 23 -22 3 -65 7 -95 8 -112 5 -158 24 -243 100 -63 57 -126 136
-133 166 0 3 -6 17 -12 33 -7 15 -14 38 -17 50 -2 12 -8 38 -12 57 -5 19 -7
42 -7 50 1 8 2 34 3 57 1 36 5 42 29 51 23 8 31 6 40 -7 9 -14 12 -14 21 -2 8
12 12 13 26 1 11 -9 19 -10 26 -3 7 7 20 6 40 -4 37 -18 42 -15 25 19 -12 22
-11 29 6 57 11 17 25 31 30 31 7 0 7 4 0 13 -6 7 -7 18 -3 26 6 9 11 10 15 2
13 -20 23 -11 18 17 -5 30 -72 95 -72 69 0 -10 -7 -13 -19 -10 -10 3 -31 -3
-45 -12 -26 -17 -27 -17 -41 1 -8 10 -15 27 -15 37 0 9 -7 17 -15 17 -29 0 -7
71 36 113 20 20 42 37 48 37 6 0 11 4 11 9 0 16 64 20 88 5 15 -10 22 -11 22
-3 0 6 9 9 19 6 15 -3 21 2 26 22 6 24 8 25 20 8 10 -13 14 -15 18 -5 4 9 6 9
6 -2 1 -9 6 -21 13 -28 7 -7 12 -24 13 -39 0 -23 5 -28 28 -30 18 -1 27 3 27
13 0 9 5 12 11 8 6 -3 14 -2 18 4 5 8 15 7 33 -2 23 -12 29 -12 38 -1 6 8 18
11 26 8 8 -3 14 1 14 8 0 11 2 12 9 1 14 -23 87 -1 77 23 -8 22 16 23 37 2 15
-15 21 -16 33 -6 8 7 14 19 13 28 -3 36 2 53 14 48 57 -23 54 -24 33 8 -39 59
-96 94 -152 95 -27 0 -44 5 -47 15 -4 8 -27 20 -52 28 l-47 13 52 32 c28 18
60 32 71 32 11 0 32 6 48 14 16 9 33 11 41 6 8 -5 21 -5 31 0 12 7 21 5 30 -6
12 -14 14 -14 25 1 12 15 14 15 38 0 14 -10 26 -23 26 -31 0 -17 50 -9 103 18
30 15 37 16 37 4 0 -15 34 -31 48 -22 5 3 24 -9 43 -26 21 -19 45 -31 61 -31
16 0 28 -3 28 -7 0 -11 33 -9 64 3 25 9 31 8 48 -13 21 -25 88 -55 88 -38 0 5
9 7 19 3 13 -4 23 0 30 12 7 11 14 14 18 8 5 -5 17 -10 28 -10 14 0 21 9 26
34 4 19 5 41 2 49 -8 19 16 33 45 25 18 -4 21 -2 16 11 -4 9 -15 21 -25 27
-11 5 -19 15 -19 22 0 8 3 8 9 -2 5 -7 13 -11 19 -7 6 4 20 -4 32 -16 l21 -23
-7 30 c-10 42 -12 45 -38 45 -18 0 -25 7 -29 28 -8 35 -46 78 -83 93 -22 9
-25 13 -11 16 19 5 21 12 9 30 -10 15 -91 45 -103 37 -13 -8 -49 15 -49 31 0
7 -9 17 -20 20 -11 3 -20 10 -20 15 0 5 -9 7 -20 5 -11 -2 -20 0 -20 4 0 5
-11 12 -25 15 -14 4 -23 10 -21 15 5 7 -53 74 -140 164 -14 13 -15 17 -3 17
10 1 8 5 -5 15 -22 17 -66 20 -66 5 0 -5 5 -10 12 -10 6 0 9 -3 5 -6 -3 -3
-12 -2 -19 2 -7 5 -22 10 -33 11 -11 2 -41 12 -67 23 -26 11 -54 20 -62 20 -9
0 -16 4 -16 9 0 12 -39 21 -46 10 -3 -5 -11 -6 -17 -2 -6 4 -26 6 -43 5 -18
-2 -36 2 -39 8 -9 14 -51 30 -92 36 -18 2 -51 8 -72 13 -25 5 -54 5 -80 -2
-34 -9 -43 -8 -59 6 -23 21 -31 21 -60 -3z m-295 -506 c-3 -3 -12 -4 -19 -1
-8 3 -5 6 6 6 11 1 17 -2 13 -5z m203 -24 c0 -5 -9 -8 -20 -7 -20 1 -25 8 -14
20 8 7 34 -3 34 -13z m-260 -10 c0 -5 -2 -10 -4 -10 -3 0 -8 5 -11 10 -3 6 -1
10 4 10 6 0 11 -4 11 -10z m565 -170 c3 -5 4 -10 1 -10 -2 0 -12 -3 -20 -6
-12 -5 -15 -2 -10 10 7 18 20 21 29 6z m-974 -40 c13 0 10 -32 -5 -52 -10 -14
-28 -18 -69 -18 -50 0 -59 3 -73 26 -14 20 -15 27 -4 37 10 9 11 9 5 -2 -6
-10 -2 -12 13 -7 11 4 23 3 26 -3 7 -11 46 -2 46 11 0 5 5 6 10 3 6 -3 10 -1
10 5 0 7 7 9 16 6 9 -3 20 -6 25 -6z m1054 -70 c3 -5 1 -10 -4 -10 -6 0 -11 5
-11 10 0 6 2 10 4 10 3 0 8 -4 11 -10z m-1372 -13 c7 -18 -8 -41 -21 -33 -6 3
-17 -1 -25 -9 -20 -20 -24 -19 -38 6 -6 12 -7 19 -2 16 5 -3 20 3 33 14 30 22
46 24 53 6z m-117 -24 c-4 -9 -1 -22 5 -29 16 -19 -8 -19 -27 0 -17 18 -18 28
-2 44 15 15 31 4 24 -15z m314 7 c0 -5 -4 -10 -9 -10 -6 0 -13 5 -16 10 -3 6
1 10 9 10 9 0 16 -4 16 -10z m440 6 c0 -11 -19 -15 -25 -6 -3 5 1 10 9 10 9 0
16 -2 16 -4z m209 -12 c22 -19 18 -40 -10 -55 -15 -7 -26 -5 -49 12 -29 22
-29 23 -10 36 11 8 25 11 30 8 6 -3 10 -1 10 4 0 15 7 14 29 -5z m-741 -11
c16 -16 42 -17 42 -3 0 7 6 7 18 2 20 -11 92 -4 92 9 0 5 4 9 10 9 18 0 -3
-32 -27 -41 -17 -6 -24 -15 -21 -27 4 -15 -3 -18 -44 -20 -38 -1 -48 1 -48 14
0 11 -5 14 -16 10 -9 -4 -23 -1 -30 5 -8 6 -21 9 -29 5 -8 -3 -22 -3 -31 1
-13 5 -11 10 12 28 31 24 52 27 72 8z m1250 -108 c-3 -3 -9 2 -12 12 -6 14 -5
15 5 6 7 -7 10 -15 7 -18z m-112 -20 c-8 -8 -18 -15 -22 -15 -3 0 -1 7 6 15 7
8 17 15 22 15 5 0 3 -7 -6 -15z m-521 -45 c3 -6 -4 -10 -17 -10 -18 0 -20 2
-8 10 19 12 18 12 25 0z m-143 -40 c11 0 38 -19 59 -41 39 -41 52 -62 25 -40
-10 9 -21 9 -42 -1 -22 -10 -28 -10 -32 0 -3 11 -52 42 -66 42 -2 0 -12 -8
-22 -17 -16 -17 -44 -27 -44 -16 0 13 94 95 98 85 2 -7 13 -12 24 -12z m-239
-11 c-8 -8 -13 -7 -18 2 -5 8 -4 10 3 5 7 -4 12 -2 12 5 0 7 3 9 7 6 4 -4 2
-12 -4 -18z m107 1 c0 5 7 10 15 10 23 0 18 -14 -15 -38 -26 -19 -30 -20 -30
-6 0 14 -3 14 -15 4 -12 -10 -19 -10 -28 -1 -9 9 -7 13 11 17 12 4 22 10 22
16 0 5 9 4 20 -2 14 -7 20 -7 20 0z m-95 -44 c7 3 16 0 20 -6 5 -8 0 -11 -16
-8 -12 1 -24 9 -25 16 -1 7 0 8 2 3 3 -6 11 -8 19 -5z m-225 -77 c0 -3 -10 -5
-22 -3 -13 1 -29 3 -35 3 -7 1 -13 8 -13 17 0 10 6 14 15 10 8 -3 15 -1 15 4
0 5 9 2 20 -7 11 -10 20 -20 20 -24z m30 31 c0 -5 -7 -10 -15 -10 -8 0 -15 5
-15 10 0 6 7 10 15 10 8 0 15 -4 15 -10z m-173 -36 c-3 -3 -12 -4 -19 -1 -8 3
-5 6 6 6 11 1 17 -2 13 -5z m60 -16 c-3 -8 -6 -5 -6 6 -1 11 2 17 5 13 3 -3 4
-12 1 -19z m-67 -8 c0 -5 -4 -10 -10 -10 -5 0 -10 5 -10 10 0 6 5 10 10 10 6
0 10 -4 10 -10z m1059 -4 c10 -12 8 -13 -8 -9 -12 3 -21 1 -21 -6 0 -6 -4 -11
-10 -11 -17 0 -11 28 8 33 9 3 18 5 18 6 1 0 7 -5 13 -13z m-981 -15 c-13 -21
-48 -24 -48 -5 0 7 12 15 28 17 15 2 28 5 30 6 1 0 -3 -8 -10 -18z m-138 -26
c0 -8 -2 -15 -4 -15 -2 0 -6 7 -10 15 -3 8 -1 15 4 15 6 0 10 -7 10 -15z"/>
</g>
</svg>
