<svg id="Group_1_copy_2" data-name="Group 1 copy 2" xmlns="http://www.w3.org/2000/svg" width="36" height="36" viewBox="0 0 36 36">
  <defs>
    <style>
      .cls-1 {
        fill: none;
        stroke: #ededed;
        stroke-width: 1px;
        fill-rule: evenodd;
      }
    </style>
  </defs>
  <path id="Polygon_1_copy_25" data-name="Polygon 1 copy 25" class="cls-1" d="M50.985,1.471l-2.33,7.564L62.479,22.86l7.564-2.33,2.33-7.564L58.549-.859Z"/>
  <path id="Polygon_1_copy_26" data-name="Polygon 1 copy 26" class="cls-1" d="M14.985,1.471l-2.33,7.564L26.479,22.86l7.564-2.33,2.33-7.564L22.549-.859Z"/>
  <path id="Polygon_1_copy_27" data-name="Polygon 1 copy 27" class="cls-1" d="M-21.015,1.471l-2.33,7.564L-9.521,22.86l7.564-2.33,2.33-7.564L-13.451-.859Z"/>
  <path id="Polygon_1_copy_31" data-name="Polygon 1 copy 31" class="cls-1" d="M50.985,37.471l-2.33,7.564L62.479,58.86l7.564-2.33,2.33-7.564L58.549,35.141Z"/>
  <path id="Polygon_1_copy_31-2" data-name="Polygon 1 copy 31" class="cls-1" d="M14.985,37.471l-2.33,7.564L26.479,58.86l7.564-2.33,2.33-7.564L22.549,35.141Z"/>
  <path id="Polygon_1_copy_31-3" data-name="Polygon 1 copy 31" class="cls-1" d="M-21.015,37.471l-2.33,7.564L-9.521,58.86l7.564-2.33,2.33-7.564L-13.451,35.141Z"/>
  <path id="Polygon_1_copy_28" data-name="Polygon 1 copy 28" class="cls-1" d="M26.985-10.529l-2.33,7.564L38.479,10.86l7.564-2.33,2.33-7.564L34.549-12.859Z"/>
  <path id="Polygon_1_copy_28-2" data-name="Polygon 1 copy 28" class="cls-1" d="M-9.015-10.529l-2.33,7.564L2.479,10.86l7.564-2.33,2.33-7.564L-1.451-12.859Z"/>
  <path id="Polygon_1_copy_28-3" data-name="Polygon 1 copy 28" class="cls-1" d="M-45.015-10.529l-2.33,7.564L-33.521,10.86l7.564-2.33,2.33-7.564L-37.451-12.859Z"/>
  <path id="Polygon_1_copy_29" data-name="Polygon 1 copy 29" class="cls-1" d="M26.985,25.471l-2.33,7.564L38.479,46.86l7.564-2.33,2.33-7.564L34.549,23.141Z"/>
  <path id="Polygon_1_copy_29-2" data-name="Polygon 1 copy 29" class="cls-1" d="M-9.015,25.471l-2.33,7.564L2.479,46.86l7.564-2.33,2.33-7.564L-1.451,23.141Z"/>
  <path id="Polygon_1_copy_29-3" data-name="Polygon 1 copy 29" class="cls-1" d="M-45.015,25.471l-2.33,7.564L-33.521,46.86l7.564-2.33,2.33-7.564L-37.451,23.141Z"/>
  <path id="Polygon_1_copy_30" data-name="Polygon 1 copy 30" class="cls-1" d="M38.985,13.471l-2.33,7.564L50.479,34.86l7.564-2.33,2.33-7.564L46.549,11.141Z"/>
  <path id="Polygon_1_copy_30-2" data-name="Polygon 1 copy 30" class="cls-1" d="M2.985,13.471l-2.33,7.564L14.479,34.86l7.564-2.33,2.33-7.564L10.549,11.141Z"/>
  <path id="Polygon_1_copy_30-3" data-name="Polygon 1 copy 30" class="cls-1" d="M-33.015,13.471l-2.33,7.564L-21.521,34.86l7.564-2.33,2.33-7.564L-25.451,11.141Z"/>
  <path id="Polygon_1_copy_32" data-name="Polygon 1 copy 32" class="cls-1" d="M38.985-22.529l-2.33,7.564L50.479-1.14l7.564-2.33,2.33-7.564L46.549-24.859Z"/>
  <path id="Polygon_1_copy_32-2" data-name="Polygon 1 copy 32" class="cls-1" d="M2.985-22.529l-2.33,7.564L14.479-1.14l7.564-2.33,2.33-7.564L10.549-24.859Z"/>
  <path id="Polygon_1_copy_32-3" data-name="Polygon 1 copy 32" class="cls-1" d="M-33.015-22.529l-2.33,7.564L-21.521-1.14l7.564-2.33,2.33-7.564L-25.451-24.859Z"/>
</svg>
