<svg id="content.svg" xmlns="http://www.w3.org/2000/svg" width="36" height="36" viewBox="0 0 36 36">
  <defs>
    <style>
      .cls-1 {
        fill: none;
        stroke: #000;
        stroke-width: 1px;
        fill-rule: evenodd;
        opacity: 0.08;
      }
    </style>
  </defs>
  <path id="Polygon_1_copy_26" data-name="Polygon 1 copy 26" class="cls-1" d="M222.985,37.471l-2.33,7.564L234.479,58.86l7.564-2.33,2.33-7.564L230.549,35.141Z" transform="translate(-196 -23)"/>
  <path id="Polygon_1_copy_27" data-name="Polygon 1 copy 27" class="cls-1" d="M186.985,37.471l-2.33,7.564L198.479,58.86l7.564-2.33,2.33-7.564L194.549,35.141Z" transform="translate(-196 -23)"/>
  <path id="Polygon_1_copy_28" data-name="Polygon 1 copy 28" class="cls-1" d="M198.985,25.471l-2.33,7.564L210.479,46.86l7.564-2.33,2.33-7.564L206.549,23.141Z" transform="translate(-196 -23)"/>
  <path id="Polygon_1_copy_30" data-name="Polygon 1 copy 30" class="cls-1" d="M210.985,49.471l-2.33,7.564L222.479,70.86l7.564-2.33,2.33-7.564L218.549,47.141Z" transform="translate(-196 -23)"/>
  <path id="Polygon_1_copy_30-2" data-name="Polygon 1 copy 30" class="cls-1" d="M174.985,49.471l-2.33,7.564L186.479,70.86l7.564-2.33,2.33-7.564L182.549,47.141Z" transform="translate(-196 -23)"/>
  <path id="Polygon_1_copy_32" data-name="Polygon 1 copy 32" class="cls-1" d="M210.985,13.471l-2.33,7.564L222.479,34.86l7.564-2.33,2.33-7.564L218.549,11.141Z" transform="translate(-196 -23)"/>
  <path id="Polygon_1_copy_32-2" data-name="Polygon 1 copy 32" class="cls-1" d="M174.985,13.471l-2.33,7.564L186.479,34.86l7.564-2.33,2.33-7.564L182.549,11.141Z" transform="translate(-196 -23)"/>
  <path id="Polygon_1_copy_28-2" data-name="Polygon 1 copy 28" class="cls-1" d="M234.985,25.471l-2.33,7.564L246.479,46.86l7.564-2.33,2.33-7.564L242.549,23.141Z" transform="translate(-196 -23)"/>
  <path id="Polygon_1_copy_29" data-name="Polygon 1 copy 29" class="cls-1" d="M234.985,61.471l-2.33,7.564L246.479,82.86l7.564-2.33,2.33-7.564L242.549,59.141Z" transform="translate(-196 -23)"/>
  <path id="Polygon_1_copy_30-3" data-name="Polygon 1 copy 30" class="cls-1" d="M246.985,49.471l-2.33,7.564L258.479,70.86l7.564-2.33,2.33-7.564L254.549,47.141Z" transform="translate(-196 -23)"/>
  <path id="Polygon_1_copy_32-3" data-name="Polygon 1 copy 32" class="cls-1" d="M246.985,13.471l-2.33,7.564L258.479,34.86l7.564-2.33,2.33-7.564L254.549,11.141Z" transform="translate(-196 -23)"/>
  <path id="Polygon_1_copy_25" data-name="Polygon 1 copy 25" class="cls-1" d="M258.985,37.471l-2.33,7.564L270.479,58.86l7.564-2.33,2.33-7.564L266.549,35.141Z" transform="translate(-196 -23)"/>
  <path id="Polygon_1_copy_31" data-name="Polygon 1 copy 31" class="cls-1" d="M258.985,73.471l-2.33,7.564L270.479,94.86l7.564-2.33,2.33-7.564L266.549,71.141Z" transform="translate(-196 -23)"/>
  <path id="Polygon_1_copy_28-3" data-name="Polygon 1 copy 28" class="cls-1" d="M162.985,25.471l-2.33,7.564L174.479,46.86l7.564-2.33,2.33-7.564L170.549,23.141Z" transform="translate(-196 -23)"/>
  <path id="Polygon_1_copy_29-2" data-name="Polygon 1 copy 29" class="cls-1" d="M162.985,61.471l-2.33,7.564L174.479,82.86l7.564-2.33,2.33-7.564L170.549,59.141Z" transform="translate(-196 -23)"/>
  <path id="Polygon_1_copy_31-2" data-name="Polygon 1 copy 31" class="cls-1" d="M222.985,73.471l-2.33,7.564L234.479,94.86l7.564-2.33,2.33-7.564L230.549,71.141Z" transform="translate(-196 -23)"/>
  <path id="Polygon_1_copy_31-3" data-name="Polygon 1 copy 31" class="cls-1" d="M186.985,73.471l-2.33,7.564L198.479,94.86l7.564-2.33,2.33-7.564L194.549,71.141Z" transform="translate(-196 -23)"/>
  <path id="Polygon_1_copy_29-3" data-name="Polygon 1 copy 29" class="cls-1" d="M198.985,61.471l-2.33,7.564L210.479,82.86l7.564-2.33,2.33-7.564L206.549,59.141Z" transform="translate(-196 -23)"/>
</svg>
