<svg xmlns="http://www.w3.org/2000/svg" width="360" height="324" viewBox="0 0 360 324">
  <defs>
    <style>
      .cls-1, .cls-2 {
        fill: none;
        stroke-width: 1px;
        fill-rule: evenodd;
      }

      .cls-1 {
        stroke: #ebebeb;
      }

      .cls-2 {
        stroke: #000;
        opacity: 0.08;
      }
    </style>
  </defs>
  <g id="login">
    <g id="login.svg">
      <path id="Polygon_1_copy_26" data-name="Polygon 1 copy 26" class="cls-1" d="M86.985,37.471l-2.33,7.564L98.479,58.86l7.564-2.33,2.33-7.564L94.549,35.141Z"/>
      <path id="Polygon_1_copy_27" data-name="Polygon 1 copy 27" class="cls-1" d="M50.985,37.471l-2.33,7.564L62.479,58.86l7.564-2.33,2.33-7.564L58.549,35.141Z"/>
      <path id="Polygon_1_copy_28" data-name="Polygon 1 copy 28" class="cls-1" d="M62.985,25.471l-2.33,7.564L74.479,46.86l7.564-2.33,2.33-7.564L70.549,23.141Z"/>
      <path id="Polygon_1_copy_30" data-name="Polygon 1 copy 30" class="cls-1" d="M74.985,49.471l-2.33,7.564L86.479,70.86l7.564-2.33,2.33-7.564L82.549,47.141Z"/>
      <path id="Polygon_1_copy_30-2" data-name="Polygon 1 copy 30" class="cls-1" d="M38.985,49.471l-2.33,7.564L50.479,70.86l7.564-2.33,2.33-7.564L46.549,47.141Z"/>
      <path id="Polygon_1_copy_32" data-name="Polygon 1 copy 32" class="cls-1" d="M74.985,13.471l-2.33,7.564L86.479,34.86l7.564-2.33,2.33-7.564L82.549,11.141Z"/>
      <path id="Polygon_1_copy_32-2" data-name="Polygon 1 copy 32" class="cls-1" d="M38.985,13.471l-2.33,7.564L50.479,34.86l7.564-2.33,2.33-7.564L46.549,11.141Z"/>
      <path id="Polygon_1_copy_28-2" data-name="Polygon 1 copy 28" class="cls-1" d="M98.985,25.471l-2.33,7.564L110.479,46.86l7.564-2.33,2.33-7.564L106.549,23.141Z"/>
      <path id="Polygon_1_copy_29" data-name="Polygon 1 copy 29" class="cls-1" d="M98.985,61.471l-2.33,7.564L110.479,82.86l7.564-2.33,2.33-7.564L106.549,59.141Z"/>
      <path id="Polygon_1_copy_30-3" data-name="Polygon 1 copy 30" class="cls-1" d="M110.985,49.471l-2.33,7.564L122.479,70.86l7.564-2.33,2.33-7.564L118.549,47.141Z"/>
      <path id="Polygon_1_copy_32-3" data-name="Polygon 1 copy 32" class="cls-1" d="M110.985,13.471l-2.33,7.564L122.479,34.86l7.564-2.33,2.33-7.564L118.549,11.141Z"/>
      <path id="Polygon_1_copy_25" data-name="Polygon 1 copy 25" class="cls-1" d="M122.985,37.471l-2.33,7.564L134.479,58.86l7.564-2.33,2.33-7.564L130.549,35.141Z"/>
      <path id="Polygon_1_copy_31" data-name="Polygon 1 copy 31" class="cls-1" d="M122.985,73.471l-2.33,7.564L134.479,94.86l7.564-2.33,2.33-7.564L130.549,71.141Z"/>
      <path id="Polygon_1_copy_28-3" data-name="Polygon 1 copy 28" class="cls-1" d="M26.985,25.471l-2.33,7.564L38.479,46.86l7.564-2.33,2.33-7.564L34.549,23.141Z"/>
      <path id="Polygon_1_copy_29-2" data-name="Polygon 1 copy 29" class="cls-1" d="M26.985,61.471l-2.33,7.564L38.479,82.86l7.564-2.33,2.33-7.564L34.549,59.141Z"/>
      <path id="Polygon_1_copy_31-2" data-name="Polygon 1 copy 31" class="cls-1" d="M86.985,73.471l-2.33,7.564L98.479,94.86l7.564-2.33,2.33-7.564L94.549,71.141Z"/>
      <path id="Polygon_1_copy_31-3" data-name="Polygon 1 copy 31" class="cls-1" d="M50.985,73.471l-2.33,7.564L62.479,94.86l7.564-2.33,2.33-7.564L58.549,71.141Z"/>
      <path id="Polygon_1_copy_29-3" data-name="Polygon 1 copy 29" class="cls-1" d="M62.985,61.471l-2.33,7.564L74.479,82.86l7.564-2.33,2.33-7.564L70.549,59.141Z"/>
    </g>
  </g>
  <g id="content.svg">
    <g>
      <path id="Polygon_1_copy_26-2" data-name="Polygon 1 copy 26" class="cls-2" d="M222.985,37.471l-2.33,7.564L234.479,58.86l7.564-2.33,2.33-7.564L230.549,35.141Z"/>
      <path id="Polygon_1_copy_27-2" data-name="Polygon 1 copy 27" class="cls-2" d="M186.985,37.471l-2.33,7.564L198.479,58.86l7.564-2.33,2.33-7.564L194.549,35.141Z"/>
      <path id="Polygon_1_copy_28-4" data-name="Polygon 1 copy 28" class="cls-2" d="M198.985,25.471l-2.33,7.564L210.479,46.86l7.564-2.33,2.33-7.564L206.549,23.141Z"/>
      <path id="Polygon_1_copy_30-4" data-name="Polygon 1 copy 30" class="cls-2" d="M210.985,49.471l-2.33,7.564L222.479,70.86l7.564-2.33,2.33-7.564L218.549,47.141Z"/>
      <path id="Polygon_1_copy_30-5" data-name="Polygon 1 copy 30" class="cls-2" d="M174.985,49.471l-2.33,7.564L186.479,70.86l7.564-2.33,2.33-7.564L182.549,47.141Z"/>
      <path id="Polygon_1_copy_32-4" data-name="Polygon 1 copy 32" class="cls-2" d="M210.985,13.471l-2.33,7.564L222.479,34.86l7.564-2.33,2.33-7.564L218.549,11.141Z"/>
      <path id="Polygon_1_copy_32-5" data-name="Polygon 1 copy 32" class="cls-2" d="M174.985,13.471l-2.33,7.564L186.479,34.86l7.564-2.33,2.33-7.564L182.549,11.141Z"/>
      <path id="Polygon_1_copy_28-5" data-name="Polygon 1 copy 28" class="cls-2" d="M234.985,25.471l-2.33,7.564L246.479,46.86l7.564-2.33,2.33-7.564L242.549,23.141Z"/>
      <path id="Polygon_1_copy_29-4" data-name="Polygon 1 copy 29" class="cls-2" d="M234.985,61.471l-2.33,7.564L246.479,82.86l7.564-2.33,2.33-7.564L242.549,59.141Z"/>
      <path id="Polygon_1_copy_30-6" data-name="Polygon 1 copy 30" class="cls-2" d="M246.985,49.471l-2.33,7.564L258.479,70.86l7.564-2.33,2.33-7.564L254.549,47.141Z"/>
      <path id="Polygon_1_copy_32-6" data-name="Polygon 1 copy 32" class="cls-2" d="M246.985,13.471l-2.33,7.564L258.479,34.86l7.564-2.33,2.33-7.564L254.549,11.141Z"/>
      <path id="Polygon_1_copy_25-2" data-name="Polygon 1 copy 25" class="cls-2" d="M258.985,37.471l-2.33,7.564L270.479,58.86l7.564-2.33,2.33-7.564L266.549,35.141Z"/>
      <path id="Polygon_1_copy_31-4" data-name="Polygon 1 copy 31" class="cls-2" d="M258.985,73.471l-2.33,7.564L270.479,94.86l7.564-2.33,2.33-7.564L266.549,71.141Z"/>
      <path id="Polygon_1_copy_28-6" data-name="Polygon 1 copy 28" class="cls-2" d="M162.985,25.471l-2.33,7.564L174.479,46.86l7.564-2.33,2.33-7.564L170.549,23.141Z"/>
      <path id="Polygon_1_copy_29-5" data-name="Polygon 1 copy 29" class="cls-2" d="M162.985,61.471l-2.33,7.564L174.479,82.86l7.564-2.33,2.33-7.564L170.549,59.141Z"/>
      <path id="Polygon_1_copy_31-5" data-name="Polygon 1 copy 31" class="cls-2" d="M222.985,73.471l-2.33,7.564L234.479,94.86l7.564-2.33,2.33-7.564L230.549,71.141Z"/>
      <path id="Polygon_1_copy_31-6" data-name="Polygon 1 copy 31" class="cls-2" d="M186.985,73.471l-2.33,7.564L198.479,94.86l7.564-2.33,2.33-7.564L194.549,71.141Z"/>
      <path id="Polygon_1_copy_29-6" data-name="Polygon 1 copy 29" class="cls-2" d="M198.985,61.471l-2.33,7.564L210.479,82.86l7.564-2.33,2.33-7.564L206.549,59.141Z"/>
    </g>
  </g>
</svg>
