<?xml version="1.0" standalone="no"?>
<!DOCTYPE svg PUBLIC "-//W3C//DTD SVG 20010904//EN"
 "http://www.w3.org/TR/2001/REC-SVG-20010904/DTD/svg10.dtd">
<svg version="1.0" xmlns="http://www.w3.org/2000/svg"
 width="1240.000000pt" height="1240.000000pt" viewBox="0 0 1240.000000 1240.000000"
 preserveAspectRatio="xMidYMid meet">
<metadata>
Created by potrace 1.11, written by Peter Selinger 2001-2013
</metadata>
<g transform="translate(0.000000,1240.000000) scale(0.100000,-0.100000)"
fill="#000000" stroke="none">
<path d="M2917 10564 c-1 -1 -54 -4 -117 -8 -63 -3 -124 -8 -135 -10 -11 -2
-47 -7 -80 -10 -33 -4 -67 -9 -75 -11 -14 -4 -35 -8 -105 -20 -144 -26 -376
-96 -548 -167 -526 -215 -992 -590 -1319 -1063 -284 -410 -461 -894 -515
-1405 -15 -142 -6 -661 12 -690 2 -3 6 -26 10 -50 11 -82 16 -104 41 -219 25
-109 82 -302 109 -366 7 -16 25 -61 40 -100 187 -471 546 -933 973 -1254 237
-178 527 -331 817 -431 107 -37 348 -100 430 -113 17 -3 59 -10 95 -15 36 -6
92 -13 125 -16 33 -3 89 -8 124 -12 47 -4 5166 -8 5625 -4 l59 0 -174 111
c-96 61 -200 128 -232 149 l-58 38 -2577 1 c-1417 0 -2608 3 -2647 6 -77 5
-104 9 -245 31 -476 74 -960 304 -1325 628 -133 118 -230 222 -382 410 -76 94
-219 338 -296 504 -43 94 -139 362 -151 422 -2 14 -11 54 -20 90 -46 197 -61
343 -61 590 0 240 11 358 51 544 9 39 18 82 20 96 9 49 77 257 114 350 249
626 722 1134 1331 1427 151 73 307 132 463 173 119 32 129 34 187 44 19 3 44
8 56 10 23 5 87 14 143 21 122 15 441 18 2252 19 1337 1 2019 -2 2021 -9 2 -5
3 -493 3 -1082 -1 -707 2 -1074 9 -1076 9 -3 272 -1 285 2 10 2 5 2461 -5
2462 -15 2 -4326 4 -4328 3z"/>
<path d="M2829 9966 c-2 -2 -40 -7 -84 -11 -247 -21 -525 -99 -775 -217 -96
-46 -296 -158 -334 -189 -6 -5 -56 -43 -111 -85 -85 -65 -280 -251 -366 -349
-126 -146 -286 -410 -369 -610 -94 -229 -159 -491 -177 -715 -13 -154 -6 -418
12 -540 66 -427 223 -795 488 -1145 64 -84 276 -302 362 -371 215 -173 465
-313 720 -404 94 -33 294 -87 355 -96 19 -3 40 -7 47 -9 6 -2 38 -7 70 -10 32
-4 69 -9 83 -13 25 -6 4258 -15 4619 -10 l184 3 -49 31 c-27 18 -131 84 -230
148 l-182 115 -2153 4 c-1185 2 -2172 7 -2194 10 -105 18 -255 50 -305 64
-578 162 -1050 550 -1314 1079 -150 302 -219 593 -220 929 -1 376 85 705 272
1039 193 343 483 624 843 815 152 80 406 173 539 196 19 3 73 13 120 22 76 15
274 17 1883 20 l1797 4 1 -33 c0 -18 1 -373 1 -788 l0 -755 149 0 c125 0 149
2 150 15 1 20 1 1774 0 1823 l-1 37 -1914 0 c-1052 0 -1915 -2 -1917 -4z"/>
<path d="M2868 9355 c-2 -1 -37 -6 -78 -9 -228 -21 -486 -108 -705 -237 -362
-213 -644 -565 -779 -969 -19 -58 -37 -116 -40 -130 -2 -14 -7 -32 -10 -40 -5
-15 -9 -38 -27 -170 -15 -108 -17 -307 -3 -418 76 -616 439 -1129 989 -1398
167 -81 335 -133 555 -170 25 -4 895 -8 1933 -9 1464 -1 1885 1 1875 10 -7 7
-110 74 -228 150 l-215 138 -1617 0 c-1714 0 -1699 0 -1891 47 -164 41 -327
115 -486 223 -100 68 -282 251 -356 356 -101 144 -201 365 -230 507 -24 118
-37 225 -38 319 -1 99 10 262 18 275 2 3 6 26 10 50 10 68 79 268 120 351 171
341 461 603 812 735 62 23 212 62 308 80 22 4 698 9 1503 11 l1462 4 0 -480
c0 -374 3 -480 13 -483 6 -2 73 -4 147 -4 l135 1 3 632 2 632 -1589 -1 c-874
0 -1591 -1 -1593 -3z"/>
<path d="M2917 8763 c-1 -1 -29 -4 -62 -7 -34 -3 -91 -12 -128 -21 -438 -102
-782 -445 -888 -885 -18 -77 -23 -125 -23 -250 -1 -186 5 -234 45 -365 81
-263 242 -480 469 -633 140 -95 316 -167 455 -187 11 -2 40 -6 65 -11 76 -12
2821 -11 2807 2 -7 6 -111 73 -231 150 l-219 139 -1141 1 c-628 0 -1163 4
-1191 8 -301 44 -552 228 -680 501 -180 381 -70 824 268 1083 72 55 201 122
267 138 8 2 44 11 80 20 59 15 171 17 1205 18 l1140 1 1 -171 c1 -95 3 -178 6
-186 5 -11 36 -13 149 -13 l144 0 0 335 0 335 -1268 0 c-698 0 -1269 -1 -1270
-2z"/>
<path d="M3967 7800 l-49 -5 64 -38 c34 -21 140 -87 233 -147 l170 -109 2580
-1 c2441 -1 2667 -2 2740 -15 17 -3 53 -7 80 -11 136 -15 358 -69 511 -124
979 -349 1667 -1217 1781 -2250 10 -93 11 -451 1 -545 -33 -309 -120 -620
-251 -895 -297 -620 -832 -1111 -1470 -1349 -138 -52 -297 -98 -397 -117 -14
-2 -36 -7 -50 -10 -47 -11 -65 -14 -125 -20 -33 -4 -63 -8 -66 -10 -23 -13
-506 -17 -2261 -18 -1331 -1 -2009 2 -2011 9 -2 6 -3 493 -3 1082 1 707 -2
1074 -9 1076 -9 2 -253 1 -280 -2 -11 -1 -14 -2439 -3 -2456 7 -11 4365 -12
4483 -1 94 9 148 15 225 28 36 5 79 12 95 14 60 9 312 74 395 102 327 111 649
287 920 502 96 76 305 276 391 375 269 308 482 697 603 1097 32 107 98 399 94
416 -2 6 6 64 18 137 9 54 12 489 4 555 -4 36 -11 90 -14 120 -11 99 -22 159
-52 295 -24 108 -84 311 -109 370 -7 17 -25 62 -40 100 -161 404 -475 839
-804 1117 -40 34 -78 66 -85 72 -6 6 -31 26 -56 44 -25 18 -66 48 -92 67 -269
199 -667 378 -1033 465 -122 29 -135 32 -260 50 -120 18 -129 19 -265 26 -157
7 -5534 11 -5603 4z"/>
<path d="M4855 7202 c6 -5 110 -73 232 -151 l221 -142 2154 -3 c1184 -2 2164
-5 2178 -8 14 -3 43 -9 65 -12 90 -14 114 -19 208 -42 178 -44 412 -138 543
-218 27 -17 58 -35 67 -41 36 -22 153 -104 174 -122 11 -10 40 -33 63 -52 23
-19 78 -71 123 -115 302 -299 507 -695 582 -1121 22 -122 28 -197 29 -350 1
-208 -20 -360 -78 -575 -27 -103 -87 -255 -144 -370 -54 -108 -168 -290 -209
-335 -10 -11 -31 -38 -48 -60 -46 -62 -212 -225 -297 -292 -173 -137 -352
-240 -552 -318 -120 -47 -342 -108 -437 -120 -29 -4 -61 -10 -73 -13 -12 -4
-830 -8 -1818 -9 -1717 -3 -1798 -3 -1799 14 0 10 -1 363 -1 786 -1 555 -4
767 -12 768 -6 0 -73 2 -148 2 -132 2 -138 1 -139 -18 0 -11 -1 -432 -1 -935
l-1 -915 1924 0 c1058 0 1956 3 1994 8 236 26 450 81 671 172 590 244 1065
727 1303 1328 51 128 108 325 126 437 3 19 8 46 10 60 11 55 13 68 20 150 56
617 -120 1215 -503 1710 -201 259 -532 525 -832 668 -193 92 -463 180 -605
198 -16 2 -37 6 -45 9 -8 2 -37 7 -65 10 -27 4 -61 9 -75 13 -40 10 -4816 14
-4805 4z"/>
<path d="M5810 6594 c0 -4 87 -61 310 -204 l145 -92 1655 -2 c910 -1 1662 -5
1670 -8 8 -4 34 -9 57 -12 69 -9 163 -33 258 -66 356 -126 665 -403 831 -744
40 -82 99 -249 114 -322 5 -27 12 -60 15 -74 18 -86 24 -282 12 -406 -36 -384
-247 -763 -567 -1014 -170 -135 -445 -258 -635 -285 -23 -3 -52 -8 -65 -12
-14 -4 -685 -9 -1492 -10 l-1468 -3 0 479 c0 374 -3 480 -12 483 -7 2 -74 3
-148 3 l-135 0 -3 -632 -2 -632 1632 3 c898 1 1644 6 1658 9 14 4 52 12 85 17
406 72 782 293 1054 620 184 221 340 556 377 808 3 20 7 43 10 51 23 68 22
416 -2 546 -48 267 -132 485 -266 690 -263 405 -688 692 -1153 780 -149 27
-216 28 -2052 30 -1036 1 -1883 0 -1883 -1z"/>
<path d="M6740 5999 c0 -5 114 -80 188 -124 19 -12 100 -64 202 -130 l65 -42
1155 0 c1266 -1 1226 1 1380 -60 148 -59 305 -181 396 -309 55 -78 116 -207
140 -299 20 -75 26 -313 10 -390 -60 -301 -300 -572 -586 -664 -143 -46 -153
-47 -1330 -46 l-1115 0 -1 176 c-1 97 -4 180 -7 185 -4 7 -228 11 -283 5 -9
-1 -11 -92 -10 -333 l1 -333 1270 1 c1225 0 1351 3 1423 23 18 5 35 10 37 10
15 -1 75 14 115 28 170 60 327 159 455 288 223 224 340 502 344 818 3 199 -39
381 -130 557 -182 355 -526 591 -925 636 -81 9 -2794 12 -2794 3z"/>
</g>
</svg>
