<svg xmlns="http://www.w3.org/2000/svg" width="21.282" height="21.375" viewBox="0 0 21.282 21.375">
  <defs>
    <style>
      .cls-1 {
        fill: #1793d1;
        fill-rule: evenodd;
      }
    </style>
  </defs>
  <path id="arch-linux-logo.svg" class="cls-1" d="M188.854,89.5a24.188,24.188,0,0,1,3.416,2.365c1.134,2.061,1.927,3.47,1.927,3.47-5.261-3.22-8.465-3.621-8.465-3.621a6.193,6.193,0,0,0-.022-3.063c-0.867-3.024-3.461-3.024-4.328,0a6.179,6.179,0,0,0-.023,3.063s-3.2.4-8.465,3.621c0,0,3.633-6.456,6.474-11.951,0.476-.922.911-1.8,1.305-2.626a10.875,10.875,0,0,0,3.021,1.728,17.345,17.345,0,0,1-2.7-2.416c1.6-3.417,2.436-5.761,2.542-6.063V73.973l0.006,0.017a0.107,0.107,0,0,1,.006-0.017v0.034a79.657,79.657,0,0,0,4.172,9.375c1.241,2.4,2.634,4.987,3.809,7.137A10.642,10.642,0,0,0,188.854,89.5Z" transform="translate(-172.906 -73.969)"/>
</svg>
