<?xml version="1.0" encoding="UTF-8" standalone="no"?>
<svg
   xmlns:dc="http://purl.org/dc/elements/1.1/"
   xmlns:cc="http://creativecommons.org/ns#"
   xmlns:rdf="http://www.w3.org/1999/02/22-rdf-syntax-ns#"
   xmlns:svg="http://www.w3.org/2000/svg"
   xmlns="http://www.w3.org/2000/svg"
   viewBox="0 0 1066.6667 366.66666"
   height="366.66666"
   width="1066.6667"
   xml:space="preserve"
   id="svg2"
   version="1.1"><metadata
     id="metadata8"><rdf:RDF><cc:Work
         rdf:about=""><dc:format>image/svg+xml</dc:format><dc:type
           rdf:resource="http://purl.org/dc/dcmitype/StillImage" /></cc:Work></rdf:RDF></metadata><defs
     id="defs6" /><g
     transform="matrix(1.3333333,0,0,-1.3333333,0,366.66667)"
     id="g10"><g
       transform="scale(0.1)"
       id="g12"><path
         id="path14"
         style="fill:#354750;fill-opacity:1;fill-rule:evenodd;stroke:none"
         d="m 2228.14,1672.31 h 255.94 V 1412.8 h 129.47 c 59.77,0 121.22,10.57 177.84,29.6 27.81,9.34 58.99,22.35 86.46,38.7 -36.14,46.8 -54.58,105.88 -60.02,164.11 -7.35,79.19 8.71,182.31 62.79,244.29 l 26.89,30.87 32.07,-25.57 c 80.74,-64.34 148.61,-154.18 160.57,-256.65 97.23,28.34 211.32,21.64 297.04,-27.39 l 35.11,-20.1 -18.5,-35.82 C 3341.35,1414.62 3189.88,1371.13 3041.76,1378.85 2820.15,831.449 2337.68,572.289 1752.68,572.289 c -302.26,0 -579.55,112.051 -737.43,377.922 l -2.6,4.391 -22.986,46.398 c -53.371,117.07 -71.113,245.32 -59.078,373.43 l 3.59,38.37 h 218.904 v 259.51 h 255.95 v 253.81 h 511.92 V 2180 h 307.19 v -507.69" /><path
         id="path16"
         style="fill:#48addf;fill-opacity:1;fill-rule:nonzero;stroke:none"
         d="m 3057.45,1576.29 c 17.16,132.3 -82.66,236.21 -144.59,285.52 -71.35,-81.78 -82.44,-296.14 29.48,-386.4 -62.45,-55.02 -194.04,-104.9 -328.79,-104.9 H 973.051 c -13.094,-139.49 11.605,-267.96 68.009,-377.959 l 18.66,-33.84 c 11.81,-19.91 24.72,-39.109 38.69,-57.563 v 0 c 67.44,-4.289 129.62,-5.757 186.49,-4.558 0.03,0 0.03,0 0.03,0 111.78,2.48 203.01,15.551 272.17,39.351 10.31,3.539 21.48,-1.91 25.05,-12.089 3.58,-10.18 -1.87,-21.34 -12.14,-24.864 -9.18,-3.16 -18.79,-6.078 -28.69,-8.937 0,0 -0.03,0 -0.05,0 -54.42,-15.41 -112.81,-25.789 -188.11,-30.36 4.44,-0.089 -4.63,-0.703 -4.68,-0.703 -2.56,-0.16 -5.78,-0.5 -8.36,-0.636 -29.65,-1.68 -61.63,-2.032 -94.34,-2.032 -35.79,0 -71.02,0.692 -110.4,2.668 l -1.01,-0.636 c 136.7,-152.383 350.41,-243.731 618.31,-243.731 566.95,0 1047.87,249.219 1260.8,808.829 151.1,-15.38 296.31,22.8 362.38,150.68 -105.22,60.2 -240.53,41 -318.41,2.16" /><path
         id="path18"
         style="fill:#56beee;fill-opacity:1;fill-rule:nonzero;stroke:none"
         d="m 3057.45,1576.29 c 17.16,132.3 -82.66,236.21 -144.59,285.52 -71.35,-81.78 -82.44,-296.14 29.48,-386.4 -62.45,-55.02 -194.04,-104.9 -328.79,-104.9 H 1070.2 c -6.71,-213.63 73.24,-375.819 214.7,-473.92 0.03,0 0.03,0 0.03,0 111.78,2.48 203.01,15.551 272.17,39.351 10.31,3.539 21.48,-1.91 25.05,-12.089 3.58,-10.18 -1.87,-21.34 -12.14,-24.864 -9.18,-3.16 -18.79,-6.078 -28.69,-8.937 0,0 -0.03,0 -0.05,0 -54.42,-15.41 -117.8,-27.102 -193.12,-31.699 -0.05,0 -1.83,1.718 -1.83,1.718 192.93,-98.14 472.71,-97.8 793.51,24.371 359.66,137.029 694.35,398.119 927.86,696.719 -3.49,-1.62 -6.94,-3.19 -10.24,-4.87" /><path
         id="path20"
         style="fill:#388bbd;fill-opacity:1;fill-rule:nonzero;stroke:none"
         d="m 976.145,1201.02 c 10.164,-74.76 32.215,-144.73 64.915,-208.469 l 18.66,-33.84 c 11.81,-19.91 24.72,-39.109 38.69,-57.563 67.44,-4.289 129.62,-5.757 186.52,-4.558 111.78,2.48 203.01,15.551 272.17,39.351 10.31,3.539 21.48,-1.91 25.05,-12.089 3.58,-10.18 -1.87,-21.34 -12.14,-24.864 -9.18,-3.16 -18.79,-6.078 -28.69,-8.937 0,0 -0.03,0 -0.05,0 -54.42,-15.41 -117.49,-26.449 -192.79,-31.063 -2.56,-0.16 -7.07,-0.187 -9.7,-0.316 -29.61,-1.66 -61.29,-2.672 -93.99,-2.672 -35.78,0 -72.37,0.672 -111.76,2.672 136.71,-152.383 351.75,-244.051 619.65,-244.051 485.39,0 907.65,182.688 1152.75,586.399 H 976.145" /><path
         id="path22"
         style="fill:#409ccb;fill-opacity:1;fill-rule:nonzero;stroke:none"
         d="m 1084.98,1201.02 c 29,-131.24 98.75,-234.219 199.95,-304.43 111.78,2.48 203.01,15.551 272.17,39.351 10.31,3.539 21.48,-1.91 25.05,-12.089 3.58,-10.18 -1.87,-21.34 -12.14,-24.864 -9.18,-3.16 -18.79,-6.078 -28.69,-8.937 0,0 -0.03,0 -0.05,0 -54.42,-15.41 -118.81,-26.449 -194.13,-31.063 192.93,-98.148 471.92,-96.718 792.69,25.453 194.02,73.969 380.77,183.999 548.34,316.579 H 1084.98" /><path
         id="path24"
         style="fill:#46b0d7;fill-opacity:1;fill-rule:evenodd;stroke:none"
         d="m 1195.73,1630.01 h 221.82 v -220.02 h -221.82 z m 18.46,-18.35 h 17.52 V 1428.3 h -17.52 z m 32.9,0 h 18.23 V 1428.3 h -18.23 z m 33.63,0 h 18.21 V 1428.3 h -18.21 z m 33.61,0 h 18.23 V 1428.3 h -18.23 z m 33.61,0 h 18.21 V 1428.3 h -18.21 z m 33.61,0 h 17.54 V 1428.3 h -17.54 v 183.36" /><path
         id="path26"
         style="fill:#46b0d7;fill-opacity:1;fill-rule:evenodd;stroke:none"
         d="m 1451.67,1883.85 h 221.86 v -220.01 h -221.86 z m 18.5,-18.33 h 17.5 v -183.34 h -17.5 z m 32.94,0 h 18.2 v -183.34 h -18.2 z m 33.55,0 h 18.23 v -183.34 h -18.23 z m 33.65,0 h 18.19 v -183.34 h -18.19 z m 33.63,0 h 18.2 v -183.34 h -18.2 z m 33.59,0 h 17.53 v -183.34 h -17.53 v 183.34" /><path
         id="path28"
         style="fill:#58c8f1;fill-opacity:1;fill-rule:evenodd;stroke:none"
         d="m 1451.67,1630.01 h 221.86 v -220.02 h -221.86 z m 18.5,-18.35 h 17.5 V 1428.3 h -17.5 z m 32.94,0 h 18.2 V 1428.3 h -18.2 z m 33.55,0 h 18.23 V 1428.3 h -18.23 z m 33.65,0 h 18.19 V 1428.3 h -18.19 z m 33.63,0 h 18.2 V 1428.3 h -18.2 z m 33.59,0 h 17.53 V 1428.3 h -17.53 v 183.36" /><path
         id="path30"
         style="fill:#46b0d7;fill-opacity:1;fill-rule:evenodd;stroke:none"
         d="m 1707.67,1630.01 h 221.85 v -220.02 h -221.85 z m 18.46,-18.35 h 17.52 V 1428.3 h -17.52 z m 32.92,0 h 18.21 V 1428.3 h -18.21 z m 33.64,0 h 18.2 V 1428.3 h -18.2 z m 33.61,0 h 18.2 V 1428.3 h -18.2 z m 33.58,0 h 18.23 V 1428.3 h -18.23 z m 33.64,0 h 17.51 V 1428.3 h -17.51 v 183.36" /><path
         id="path32"
         style="fill:#58c8f1;fill-opacity:1;fill-rule:evenodd;stroke:none"
         d="m 1707.67,1883.85 h 221.85 v -220.01 h -221.85 z m 18.46,-18.33 h 17.52 v -183.34 h -17.52 z m 32.92,0 h 18.21 v -183.34 h -18.21 z m 33.64,0 h 18.2 v -183.34 h -18.2 z m 33.61,0 h 18.2 v -183.34 h -18.2 z m 33.58,0 h 18.23 v -183.34 h -18.23 z m 33.64,0 h 17.51 v -183.34 h -17.51 v 183.34" /><path
         id="path34"
         style="fill:#58c8f1;fill-opacity:1;fill-rule:evenodd;stroke:none"
         d="m 1963.64,1630.01 h 221.85 v -220.02 h -221.85 z m 18.47,-18.35 h 17.53 V 1428.3 h -17.53 z m 32.94,0 h 18.21 V 1428.3 h -18.21 z m 33.61,0 h 18.2 V 1428.3 h -18.2 z m 33.61,0 h 18.2 V 1428.3 h -18.2 z m 33.61,0 h 18.22 V 1428.3 h -18.22 z m 33.61,0 h 17.54 V 1428.3 h -17.54 v 183.36" /><path
         id="path36"
         style="fill:#46b0d7;fill-opacity:1;fill-rule:evenodd;stroke:none"
         d="m 1963.64,1883.85 h 221.85 v -220.01 h -221.85 z m 18.47,-18.33 h 17.53 v -183.34 h -17.53 z m 32.94,0 h 18.21 v -183.34 h -18.21 z m 33.61,0 h 18.2 v -183.34 h -18.2 z m 33.61,0 h 18.2 v -183.34 h -18.2 z m 33.61,0 h 18.22 v -183.34 h -18.22 z m 33.61,0 h 17.54 v -183.34 h -17.54 v 183.34" /><path
         id="path38"
         style="fill:#58c8f1;fill-opacity:1;fill-rule:evenodd;stroke:none"
         d="m 1963.64,2137.71 h 221.85 V 1917.7 h -221.85 z m 18.47,-18.32 h 17.53 v -183.37 h -17.53 z m 32.94,0 h 18.21 v -183.37 h -18.21 z m 33.61,0 h 18.2 v -183.37 h -18.2 z m 33.61,0 h 18.2 v -183.37 h -18.2 z m 33.61,0 h 18.22 v -183.37 h -18.22 z m 33.61,0 h 17.54 v -183.37 h -17.54 v 183.37" /><path
         id="path40"
         style="fill:#46b0d7;fill-opacity:1;fill-rule:evenodd;stroke:none"
         d="m 2219.6,1630.01 h 221.83 V 1409.99 H 2219.6 Z m 18.49,-18.35 h 17.49 V 1428.3 h -17.49 z m 32.92,0 h 18.18 V 1428.3 h -18.18 z m 33.61,0 h 18.21 V 1428.3 h -18.21 z m 33.59,0 h 18.21 V 1428.3 h -18.21 z m 33.64,0 h 18.19 V 1428.3 h -18.19 z m 33.6,0 h 17.51 V 1428.3 h -17.51 v 183.36" /><path
         id="path42"
         style="fill:#d7f2f2;fill-opacity:1;fill-rule:evenodd;stroke:none"
         d="m 1659.66,1053.27 c 33.8,0 61.21,-27.17 61.21,-60.661 0,-33.558 -27.41,-60.711 -61.21,-60.711 -33.83,0 -61.2,27.153 -61.2,60.711 0,33.491 27.37,60.661 61.2,60.661" /><path
         id="path44"
         style="fill:#354750;fill-opacity:1;fill-rule:evenodd;stroke:none"
         d="m 1659.66,1036.1 c 5.59,0 10.92,-1.09 15.83,-2.97 -5.31,-3.05 -8.92,-8.8 -8.92,-15.36 0,-9.8 8,-17.73 17.89,-17.73 6.77,0 12.64,3.7 15.67,9.24 2.16,-5.15 3.33,-10.749 3.33,-16.671 0,-24.019 -19.61,-43.5 -43.8,-43.5 -24.21,0 -43.85,19.481 -43.85,43.5 0,23.981 19.64,43.491 43.85,43.491" /><path
         id="path46"
         style="fill:#354750;fill-opacity:1;fill-rule:evenodd;stroke:none"
         d="M 577.113,1179.07 H 3424.15 c -62.03,15.61 -196.16,36.65 -174.02,117.23 -112.73,-129.37 -384.58,-90.75 -453.18,-26.97 -76.37,-109.9 -521.14,-68.12 -552.15,17.5 -95.77,-111.48 -392.55,-111.48 -488.36,0 -31.02,-85.62 -475.74,-127.4 -552.14,-17.5 -68.63,-63.78 -340.445,-102.4 -453.155,26.97 22.113,-80.58 -112.028,-101.62 -174.032,-117.23" /><path
         id="path48"
         style="fill:#c2e1e1;fill-opacity:1;fill-rule:nonzero;stroke:none"
         d="m 1822.35,615.91 c -151.57,71.34 -234.78,168.262 -281.08,274.141 -56.29,-15.942 -123.96,-26.11 -202.59,-30.5 -29.65,-1.672 -60.77,-2.473 -93.48,-2.473 -37.71,0 -77.43,1.113 -119.1,3.293 138.98,-137.769 309.95,-243.832 626.58,-245.75 23.35,0 46.58,0.418 69.67,1.289" /><path
         id="path50"
         style="fill:#d7f2f2;fill-opacity:1;fill-rule:nonzero;stroke:none"
         d="m 1597.58,792.379 c -20.97,28.23 -41.3,63.703 -56.26,97.672 -56.34,-15.942 -124.01,-26.11 -202.64,-30.5 53.99,-29.082 131.28,-56.012 258.9,-67.172" /><path
         id="path52"
         style="fill:#354750;fill-opacity:1;fill-rule:evenodd;stroke:none"
         d="m 4120.7,1470.32 v 247.11 c 0,32.47 20.45,58.59 54.35,58.59 h 9.38 c 33.9,0 54.27,-26.12 54.27,-58.59 v -520.25 c 0,-126.85 -63.21,-227.801 -173.32,-292.129 -51.07,-29.75 -107.52,-45.063 -166.72,-45.063 h -23.4 c -127.92,0 -229.59,62.723 -294.51,171.882 -30.15,50.67 -45.48,106.56 -45.48,165.31 v 23.22 c 0,126.88 63.22,227.75 173.28,292.19 51.11,29.92 107.46,45.12 166.71,45.12 h 23.4 c 86.59,0 160.09,-33.29 222.04,-87.39 z M 3653.25,1208.8 c 0,-91.67 44.81,-160.51 125.8,-204.49 32.72,-17.74 68.27,-27.279 105.65,-27.279 90.68,0 157.96,42.409 204.36,118.659 21.57,35.45 31.64,74.25 31.64,115.5 0,79.43 -37.94,141.43 -102.49,187.44 -39.11,27.96 -83.18,41.95 -131.23,41.95 -98.87,0 -170.02,-49.52 -212.73,-137.53 -14.41,-29.74 -21,-61.31 -21,-94.25 z m 994.84,348.91 h 16.36 c 136.73,0 240.7,-65.8 306.59,-184.17 26.35,-47.34 40.44,-99.02 40.44,-153.14 v -23.22 c 0,-126.85 -63.07,-227.961 -173.34,-292.129 -51.09,-29.692 -107.51,-45.063 -166.68,-45.063 h -23.37 c -127.94,0 -229.61,62.723 -294.55,171.882 -30.14,50.67 -45.48,106.56 -45.48,165.31 v 23.22 c 0,126.88 63.48,227.46 173.2,292.17 51.06,30.08 107.52,45.14 166.83,45.14 z M 4426.03,1208.8 c 0,-88.95 44.05,-154.38 119.84,-200.38 35.53,-21.619 74.71,-31.389 116.3,-31.389 88.6,0 154.1,44.549 199.73,118.759 21.74,35.35 31.57,74.21 31.57,115.4 0,82.75 -40.16,145.88 -108.85,191.69 -37.63,25.12 -79.52,37.7 -124.84,37.7 -98.88,0 -170.02,-49.52 -212.7,-137.53 -14.46,-29.74 -21.05,-61.31 -21.05,-94.25 z m 1075.99,222.44 c -17.76,8.26 -51.13,11.01 -70.38,11.73 -98.58,3.69 -169.92,-51.38 -211.8,-137.62 -14.43,-29.73 -20.99,-61.25 -20.99,-94.16 0,-100.25 53.03,-170.43 143.29,-213.21 32.94,-15.589 75.48,-18.57 111.49,-18.57 31.69,0 76.47,19.231 104.58,32.48 l 4.87,2.27 h 21.79 l 2.42,-0.46 c 26.87,-5.56 47.1,-22.419 47.1,-51.028 v -11.621 c 0,-71.219 -131.31,-87.571 -181.42,-91 -176.8,-12.153 -309.01,84.148 -359.45,251.389 -8.77,29.06 -12.7,57.9 -12.7,88.14 v 23.19 c 0,126.89 63.47,227.43 173.24,292.06 51.1,30.07 107.5,45.16 166.79,45.16 h 23.39 c 62.88,0 120.84,-17.7 172.75,-52.89 l 4.3,-2.92 2.65,-4.39 c 5.61,-9.22 10.45,-19.9 10.45,-30.87 v -11.59 c 0,-29.88 -22.54,-45.91 -49.75,-51.12 l -2.24,-0.37 h -6.96 c -17.63,0 -57.65,18.05 -73.42,25.4 z m 382.82,-79.26 c 45.81,45.53 91.84,90.94 138.36,135.73 12.94,12.48 62.03,65.35 81.34,65.35 h 21.17 l 2.38,-0.51 c 26.93,-5.54 47.12,-22.44 47.12,-51.11 v -11.63 c 0,-19.55 -23.13,-42.3 -35.86,-55.69 -27.13,-28.5 -55.67,-56.05 -83.42,-83.98 l -142.54,-143.51 c 61.35,-61.02 122.67,-122.09 183.58,-183.57 16.83,-17 33.68,-34.048 50.29,-51.29 5.83,-6.09 14.52,-13.719 19.42,-22.18 5.27,-7.969 8.53,-16.93 8.53,-26.5 v -12.051 l -0.71,-2.801 c -6.63,-26.699 -23.72,-48.25 -53.55,-48.25 h -9.39 c -19.52,0 -41.57,21.934 -54.93,34.422 -27.55,25.781 -54.19,52.879 -81.23,79.18 l -90.56,88.21 V 920.809 c 0,-32.418 -20.5,-58.52 -54.37,-58.52 h -9.32 c -33.86,0 -54.3,26.102 -54.3,58.52 v 794.361 c 0,32.49 20.44,58.48 54.3,58.48 h 9.32 c 33.87,0 54.37,-25.99 54.37,-58.48 z m 1470.76,201.08 h 11.69 c 35.4,0 59.04,-23.68 59.04,-58.58 0,-48.45 -46.7,-60.86 -87.09,-60.86 -53.04,0 -103.6,-31.79 -140.17,-67.46 -45.55,-44.58 -65.49,-101.58 -65.49,-164.31 V 918.551 c 0,-32.512 -20.46,-58.563 -54.32,-58.563 h -9.31 c -33.93,0 -54.38,26.051 -54.38,58.563 v 299.569 c 0,115.04 56.46,208.91 150.6,274.82 56.25,39.35 120.58,60.12 189.43,60.12 z M 6516.88,991.59 c 42.91,-14.879 91.89,-12.762 135.95,-5.141 22.51,9.5 80.18,34.421 101.36,30.801 l 3.34,-0.58 3.02,-1.47 c 12.93,-6.24 25.29,-15.04 31.9,-28.091 15.48,-30.629 8.03,-61.398 -22.28,-78.75 l -10.11,-5.828 c -111.93,-64.07 -230.99,-55.191 -342.58,4.66 -53.35,28.59 -94.14,71.071 -124.26,122.839 l -7.04,12.08 c -71.86,123.39 -62.16,253.23 18.9,370.6 27.96,40.55 64.51,71.91 107.25,96.41 l 16.2,9.26 c 105.43,60.35 218.4,56.23 326.68,3.26 58.2,-28.49 105.34,-70.96 137.83,-126.77 l 5.87,-10.03 c 23.6,-40.62 -6.99,-75.95 -38.56,-100.13 -36.65,-28 -73.63,-61.75 -108.75,-91.8 -78.3,-67.04 -156.44,-134.24 -234.72,-201.32 z m -101.36,70.58 c 87.61,74.48 175.18,149 262.51,223.8 29.84,25.5 62.57,51.96 92.21,78.84 -23.78,29.65 -63.47,51.09 -97.19,63.84 -68.07,25.72 -135.17,17.05 -197.6,-18.66 -81.69,-46.76 -116.53,-121.29 -113.48,-214 1.24,-36.5 11.13,-71.67 30.69,-102.76 6.86,-10.95 14.58,-21.25 22.86,-31.06" /></g></g></svg>