<svg xmlns="http://www.w3.org/2000/svg" width="115.531" height="16.875" viewBox="0 0 115.531 16.875">
  <defs>
    <style>
      .cls-1 {
        fill: #d7ae72;
        fill-rule: evenodd;
      }
    </style>
  </defs>
  <path id="homebrew-logo.svg" class="cls-1" d="M26,155.108v2.9h1.21v9.572H26v2.9h7.129v-2.9H31.763v-3.323h4.181v3.323h-1.3v2.9H41.8v-2.9H40.521v-9.572H41.8v-2.9H34.646v2.9h1.3v3.323H31.763v-3.323h1.364v-2.9H26Zm22.727,15.666c3.344,0,6.051-2.09,6.007-5.743-0.066-3.674-2.64-5.764-6.117-5.808a5.742,5.742,0,0,0-6.029,5.72C42.543,168.838,45.579,170.774,48.725,170.774Zm0-2.816c-0.924,0-1.628-1.188-1.628-2.993,0-1.606.66-2.882,1.518-2.882,1.034,0.022,1.606,1.3,1.606,2.948S49.672,167.958,48.725,167.958Zm13.332,2.53v-2.882h-1.32v-3.917c0-.9.286-1.32,0.99-1.32,0.88,0,.924.726,0.924,2.508v5.611h5.7V167.54H67.03v-3.565c0-.946.22-1.606,1.166-1.606,1.034,0,.836,1.672.836,2.729v5.39h5.589v-2.97H73.543v-3.037c0-2.684-.55-5.28-4.115-5.28a4.253,4.253,0,0,0-3.234,1.584,3.406,3.406,0,0,0-3.279-1.584,3.907,3.907,0,0,0-2.75,1.606l-0.484-1.3H55.523v2.9h0.924v5.193H55.523v2.882h6.535ZM84.7,166.836a4.482,4.482,0,0,1-3.081,1.056,2.029,2.029,0,0,1-2.266-1.8H86.28a6.383,6.383,0,0,0-.044-3.719c-0.638-1.848-2.64-3.19-5.259-3.19-3.322,0-5.919,2.134-5.919,5.742a5.6,5.6,0,0,0,5.809,5.963,8.029,8.029,0,0,0,5.677-1.914Zm-5.281-2.927a1.732,1.732,0,0,1,1.694-1.76,1.5,1.5,0,0,1,1.628,1.76H79.415Zm8.139,6.579h4.951l0.33-.748a3.751,3.751,0,0,0,2.9.99c3.1,0,5.016-2.266,5.082-5.654,0.066-2.949-1.716-5.765-5.06-5.765a4.337,4.337,0,0,0-2.882,1.034v-6.359H87.555v2.882h0.924v10.76H87.555v2.86Zm8.427-5.368c0,1.672-.638,2.75-1.562,2.75-0.836,0-1.584-1.144-1.584-2.64-0.088-1.739.7-2.817,1.562-2.817C95.366,162.413,95.982,163.8,95.982,165.12Zm12.1,5.368v-2.882h-1.1V165.34c0-1.937,1.122-2.443,3.1-2.443v-3.96c-2.267,0-2.839.9-3.411,1.958l-0.66-1.408h-4.136v2.86h0.946v5.259h-0.968v2.882h6.226Zm12.079-3.652a4.482,4.482,0,0,1-3.081,1.056,2.028,2.028,0,0,1-2.266-1.8h6.931a6.383,6.383,0,0,0-.044-3.719c-0.638-1.848-2.64-3.19-5.259-3.19-3.322,0-5.919,2.134-5.919,5.742a5.6,5.6,0,0,0,5.809,5.963,8.028,8.028,0,0,0,5.677-1.914Zm-5.281-2.927a1.732,1.732,0,0,1,1.694-1.76,1.5,1.5,0,0,1,1.629,1.76h-3.323Zm13.662,3.213a18.109,18.109,0,0,0-.55-3.169l-0.484-1.606h0.748v-2.86h-5.919v2.86h0.947l2.486,8.141H130.3l1.584-4.972,1.518,4.972h4.643l2.574-8.141h0.9v-2.86h-5.369v2.86h0.9l-0.374,1.3a22.411,22.411,0,0,0-.595,3.477h-0.044a30.656,30.656,0,0,0-.946-4.775l-0.836-2.86h-4.07l-0.705,2.464a24.228,24.228,0,0,0-.9,5.171h-0.044Z" transform="translate(-26 -154)"/>
</svg>
